Nokyung-B.ufo
<glyph name="period" format="1">
  <advance width="766"/>
  <unicode hex="002E"/>
  <outline>
    <contour>
      <point x="160" y="134" type="curve" smooth="yes"/>
      <point x="160" y="225"/>
      <point x="215" y="281"/>
      <point x="306" y="281" type="curve" smooth="yes"/>
      <point x="399" y="281"/>
      <point x="460" y="225"/>
      <point x="460" y="134" type="curve" smooth="yes"/>
      <point x="460" y="43"/>
      <point x="399" y="-19"/>
      <point x="306" y="-19" type="curve" smooth="yes"/>
      <point x="215" y="-19"/>
      <point x="160" y="43"/>
    </contour>
  </outline>
</glyph>
<glyph name="two" format="1">
  <advance width="956"/>
  <unicode hex="0032"/>
  <outline>
    <contour>
      <point x="857" y="69" type="curve" smooth="yes"/>
      <point x="864" y="25"/>
      <point x="863" y="2"/>
      <point x="854" y="0" type="curve" smooth="yes"/>
      <point x="801" y="-11"/>
      <point x="700" y="-16"/>
      <point x="550" y="-16" type="curve" smooth="yes"/>
      <point x="171" y="-16" type="line" smooth="yes"/>
      <point x="140" y="-16"/>
      <point x="119" y="-3"/>
      <point x="110" y="23" type="curve" smooth="yes"/>
      <point x="105" y="38"/>
      <point x="102" y="66"/>
      <point x="102" y="106" type="curve" smooth="yes"/>
      <point x="102" y="230"/>
      <point x="125" y="330"/>
      <point x="170" y="406" type="curve"/>
      <point x="199" y="453"/>
      <point x="276" y="542"/>
      <point x="402" y="672" type="curve" smooth="yes"/>
      <point x="529" y="802"/>
      <point x="615" y="906"/>
      <point x="660" y="983" type="curve" smooth="yes"/>
      <point x="697" y="1046"/>
      <point x="715" y="1109"/>
      <point x="715" y="1172" type="curve" smooth="yes"/>
      <point x="715" y="1237"/>
      <point x="694" y="1294"/>
      <point x="653" y="1341" type="curve" smooth="yes"/>
      <point x="608" y="1392"/>
      <point x="551" y="1418"/>
      <point x="481" y="1418" type="curve" smooth="yes"/>
      <point x="420" y="1418"/>
      <point x="362" y="1397"/>
      <point x="308" y="1356" type="curve" smooth="yes"/>
      <point x="259" y="1319"/>
      <point x="227" y="1276"/>
      <point x="211" y="1227" type="curve" smooth="yes"/>
      <point x="210" y="1223"/>
      <point x="207" y="1221"/>
      <point x="203" y="1221" type="curve" smooth="yes"/>
      <point x="190" y="1221"/>
      <point x="172" y="1234"/>
      <point x="149" y="1261" type="curve" smooth="yes"/>
      <point x="124" y="1290"/>
      <point x="117" y="1313"/>
      <point x="130" y="1330" type="curve" smooth="yes"/>
      <point x="217" y="1442"/>
      <point x="344" y="1498"/>
      <point x="511" y="1498" type="curve" smooth="yes"/>
      <point x="607" y="1498"/>
      <point x="687" y="1471"/>
      <point x="750" y="1418" type="curve" smooth="yes"/>
      <point x="816" y="1362"/>
      <point x="849" y="1288"/>
      <point x="849" y="1196" type="curve" smooth="yes"/>
      <point x="849" y="1113"/>
      <point x="828" y="1038"/>
      <point x="785" y="969" type="curve" smooth="yes"/>
      <point x="740" y="896"/>
      <point x="639" y="781"/>
      <point x="484" y="622" type="curve" smooth="yes"/>
      <point x="378" y="514"/>
      <point x="309" y="425"/>
      <point x="276" y="356" type="curve" smooth="yes"/>
      <point x="249" y="301"/>
      <point x="236" y="233"/>
      <point x="236" y="150" type="curve" smooth="yes"/>
      <point x="236" y="101"/>
      <point x="245" y="76"/>
      <point x="262" y="76" type="curve" smooth="yes"/>
      <point x="580" y="76" type="line" smooth="yes"/>
      <point x="681" y="76"/>
      <point x="764" y="88"/>
      <point x="829" y="113" type="curve" smooth="yes"/>
      <point x="842" y="118"/>
      <point x="851" y="103"/>
    </contour>
  </outline>
</glyph>
<glyph name="three" format="1">
  <advance width="956"/>
  <unicode hex="0033"/>
  <outline>
    <contour>
      <point x="866" y="448" type="curve" smooth="yes"/>
      <point x="866" y="313"/>
      <point x="834" y="204"/>
      <point x="769" y="121" type="curve" smooth="yes"/>
      <point x="697" y="29"/>
      <point x="593" y="-17"/>
      <point x="456" y="-17" type="curve" smooth="yes"/>
      <point x="306" y="-17"/>
      <point x="189" y="27"/>
      <point x="105" y="115" type="curve" smooth="yes"/>
      <point x="96" y="124"/>
      <point x="101" y="143"/>
      <point x="119" y="170" type="curve" smooth="yes"/>
      <point x="141" y="203"/>
      <point x="160" y="219"/>
      <point x="176" y="219" type="curve" smooth="yes"/>
      <point x="179" y="219"/>
      <point x="180" y="218"/>
      <point x="181" y="217" type="curve" smooth="yes"/>
      <point x="207" y="178"/>
      <point x="241" y="144"/>
      <point x="283" y="115" type="curve" smooth="yes"/>
      <point x="332" y="81"/>
      <point x="379" y="64"/>
      <point x="424" y="64" type="curve" smooth="yes"/>
      <point x="518" y="64"/>
      <point x="593" y="101"/>
      <point x="650" y="176" type="curve" smooth="yes"/>
      <point x="705" y="247"/>
      <point x="732" y="339"/>
      <point x="732" y="450" type="curve" smooth="yes"/>
      <point x="732" y="567"/>
      <point x="705" y="658"/>
      <point x="650" y="723" type="curve" smooth="yes"/>
      <point x="596" y="788"/>
      <point x="522" y="818"/>
      <point x="428" y="811" type="curve"/>
      <point x="425" y="819"/>
      <point x="422" y="833"/>
      <point x="420" y="854" type="curve"/>
      <point x="423" y="877"/>
      <point x="428" y="889"/>
      <point x="437" y="889" type="curve" smooth="yes"/>
      <point x="606" y="889"/>
      <point x="691" y="973"/>
      <point x="691" y="1142" type="curve" smooth="yes"/>
      <point x="691" y="1223"/>
      <point x="670" y="1289"/>
      <point x="628" y="1339" type="curve" smooth="yes"/>
      <point x="584" y="1392"/>
      <point x="525" y="1418"/>
      <point x="451" y="1418" type="curve" smooth="yes"/>
      <point x="349" y="1418"/>
      <point x="273" y="1366"/>
      <point x="223" y="1262" type="curve" smooth="yes"/>
      <point x="222" y="1261"/>
      <point x="221" y="1260"/>
      <point x="219" y="1260" type="curve" smooth="yes"/>
      <point x="211" y="1260"/>
      <point x="194" y="1274"/>
      <point x="169" y="1301" type="curve" smooth="yes"/>
      <point x="145" y="1326"/>
      <point x="135" y="1343"/>
      <point x="140" y="1350" type="curve" smooth="yes"/>
      <point x="169" y="1395"/>
      <point x="215" y="1430"/>
      <point x="276" y="1457" type="curve" smooth="yes"/>
      <point x="338" y="1484"/>
      <point x="403" y="1498"/>
      <point x="471" y="1498" type="curve" smooth="yes"/>
      <point x="582" y="1498"/>
      <point x="668" y="1465"/>
      <point x="728" y="1400" type="curve" smooth="yes"/>
      <point x="782" y="1341"/>
      <point x="809" y="1263"/>
      <point x="809" y="1166" type="curve" smooth="yes"/>
      <point x="809" y="1013"/>
      <point x="748" y="910"/>
      <point x="625" y="857" type="curve"/>
      <point x="786" y="797"/>
      <point x="866" y="661"/>
    </contour>
  </outline>
</glyph>
<glyph name="seven" format="1">
  <advance width="956"/>
  <unicode hex="0037"/>
  <outline>
    <contour>
      <point x="876" y="1381" type="curve" smooth="yes"/>
      <point x="876" y="1352"/>
      <point x="857" y="1297"/>
      <point x="820" y="1216" type="curve"/>
      <point x="590" y="733" type="line"/>
      <point x="520" y="582"/>
      <point x="465" y="427"/>
      <point x="425" y="269" type="curve" smooth="yes"/>
      <point x="394" y="148"/>
      <point x="379" y="59"/>
      <point x="379" y="0" type="curve" smooth="yes"/>
      <point x="379" y="-5"/>
      <point x="379" y="-8"/>
      <point x="378" y="-11" type="curve" smooth="yes"/>
      <point x="375" y="-19"/>
      <point x="349" y="-17"/>
      <point x="300" y="-4" type="curve" smooth="yes"/>
      <point x="251" y="9"/>
      <point x="228" y="25"/>
      <point x="231" y="44" type="curve" smooth="yes"/>
      <point x="236" y="89"/>
      <point x="266" y="184"/>
      <point x="319" y="328" type="curve" smooth="yes"/>
      <point x="376" y="483"/>
      <point x="438" y="634"/>
      <point x="506" y="780" type="curve" smooth="yes"/>
      <point x="657" y="1104"/>
      <point x="732" y="1301"/>
      <point x="732" y="1371" type="curve" smooth="yes"/>
      <point x="732" y="1391"/>
      <point x="723" y="1401"/>
      <point x="706" y="1401" type="curve" smooth="yes"/>
      <point x="378" y="1401" type="line" smooth="yes"/>
      <point x="296" y="1401"/>
      <point x="213" y="1384"/>
      <point x="129" y="1351" type="curve" smooth="yes"/>
      <point x="117" y="1346"/>
      <point x="108" y="1364"/>
      <point x="101" y="1405" type="curve" smooth="yes"/>
      <point x="94" y="1449"/>
      <point x="95" y="1472"/>
      <point x="104" y="1474" type="curve" smooth="yes"/>
      <point x="160" y="1485"/>
      <point x="261" y="1491"/>
      <point x="408" y="1491" type="curve" smooth="yes"/>
      <point x="833" y="1491" type="line" smooth="yes"/>
      <point x="848" y="1491"/>
      <point x="860" y="1472"/>
      <point x="869" y="1433" type="curve" smooth="yes"/>
      <point x="874" y="1414"/>
      <point x="876" y="1397"/>
    </contour>
  </outline>
</glyph>
<glyph name="at" format="1">
  <advance width="1887"/>
  <unicode hex="0040"/>
  <outline>
    <contour>
      <point x="1779" y="171" type="curve"/>
      <point x="1836" y="171" type="line"/>
      <point x="1799" y="36"/>
      <point x="1718" y="-89"/>
      <point x="1591" y="-206" type="curve" smooth="yes"/>
      <point x="1420" y="-364"/>
      <point x="1212" y="-443"/>
      <point x="969" y="-443" type="curve" smooth="yes"/>
      <point x="697" y="-443"/>
      <point x="479" y="-347"/>
      <point x="315" y="-156" type="curve" smooth="yes"/>
      <point x="170" y="14"/>
      <point x="97" y="214"/>
      <point x="97" y="445" type="curve" smooth="yes"/>
      <point x="97" y="746"/>
      <point x="200" y="990"/>
      <point x="406" y="1175" type="curve" smooth="yes"/>
      <point x="589" y="1340"/>
      <point x="801" y="1422"/>
      <point x="1042" y="1422" type="curve" smooth="yes"/>
      <point x="1247" y="1422"/>
      <point x="1415" y="1364"/>
      <point x="1546" y="1247" type="curve" smooth="yes"/>
      <point x="1687" y="1122"/>
      <point x="1757" y="952"/>
      <point x="1757" y="737" type="curve" smooth="yes"/>
      <point x="1757" y="540"/>
      <point x="1704" y="373"/>
      <point x="1597" y="236" type="curve" smooth="yes"/>
      <point x="1491" y="100"/>
      <point x="1361" y="32"/>
      <point x="1206" y="32" type="curve" smooth="yes"/>
      <point x="1105" y="32"/>
      <point x="1054" y="80"/>
      <point x="1054" y="177" type="curve" smooth="yes"/>
      <point x="1054" y="208"/>
      <point x="1059" y="254"/>
      <point x="1070" y="315" type="curve"/>
      <point x="912" y="126"/>
      <point x="781" y="32"/>
      <point x="676" y="32" type="curve" smooth="yes"/>
      <point x="627" y="32"/>
      <point x="586" y="52"/>
      <point x="551" y="93" type="curve" smooth="yes"/>
      <point x="514" y="136"/>
      <point x="496" y="193"/>
      <point x="496" y="262" type="curve" smooth="yes"/>
      <point x="496" y="421"/>
      <point x="559" y="579"/>
      <point x="686" y="736" type="curve" smooth="yes"/>
      <point x="810" y="889"/>
      <point x="930" y="965"/>
      <point x="1046" y="965" type="curve" smooth="yes"/>
      <point x="1142" y="965"/>
      <point x="1200" y="919"/>
      <point x="1220" y="826" type="curve"/>
      <point x="1251" y="936" type="line"/>
      <point x="1407" y="959" type="line"/>
      <point x="1292" y="560" type="line" smooth="yes"/>
      <point x="1229" y="339"/>
      <point x="1198" y="212"/>
      <point x="1198" y="177" type="curve" smooth="yes"/>
      <point x="1198" y="127"/>
      <point x="1224" y="102"/>
      <point x="1275" y="102" type="curve" smooth="yes"/>
      <point x="1367" y="102"/>
      <point x="1457" y="160"/>
      <point x="1545" y="275" type="curve" smooth="yes"/>
      <point x="1646" y="407"/>
      <point x="1696" y="568"/>
      <point x="1696" y="757" type="curve" smooth="yes"/>
      <point x="1696" y="944"/>
      <point x="1633" y="1094"/>
      <point x="1506" y="1208" type="curve" smooth="yes"/>
      <point x="1385" y="1317"/>
      <point x="1232" y="1371"/>
      <point x="1048" y="1371" type="curve" smooth="yes"/>
      <point x="813" y="1371"/>
      <point x="612" y="1282"/>
      <point x="447" y="1105" type="curve" smooth="yes"/>
      <point x="276" y="922"/>
      <point x="191" y="693"/>
      <point x="191" y="418" type="curve" smooth="yes"/>
      <point x="191" y="199"/>
      <point x="255" y="16"/>
      <point x="384" y="-132" type="curve" smooth="yes"/>
      <point x="527" y="-297"/>
      <point x="724" y="-380"/>
      <point x="975" y="-380" type="curve" smooth="yes"/>
      <point x="1196" y="-380"/>
      <point x="1384" y="-311"/>
      <point x="1537" y="-172" type="curve" smooth="yes"/>
      <point x="1638" y="-81"/>
      <point x="1718" y="33"/>
    </contour>
    <contour>
      <point x="1182" y="756" type="curve" smooth="yes"/>
      <point x="1182" y="864"/>
      <point x="1141" y="918"/>
      <point x="1058" y="918" type="curve" smooth="yes"/>
      <point x="968" y="918"/>
      <point x="876" y="835"/>
      <point x="782" y="670" type="curve" smooth="yes"/>
      <point x="697" y="519"/>
      <point x="654" y="394"/>
      <point x="654" y="294" type="curve" smooth="yes"/>
      <point x="654" y="249"/>
      <point x="667" y="213"/>
      <point x="693" y="186" type="curve" smooth="yes"/>
      <point x="715" y="163"/>
      <point x="740" y="152"/>
      <point x="768" y="152" type="curve" smooth="yes"/>
      <point x="831" y="152"/>
      <point x="899" y="190"/>
      <point x="971" y="267" type="curve" smooth="yes"/>
      <point x="1038" y="338"/>
      <point x="1089" y="421"/>
      <point x="1126" y="514" type="curve" smooth="yes"/>
      <point x="1163" y="607"/>
      <point x="1182" y="688"/>
    </contour>
  </outline>
</glyph>
<glyph name="C" format="1">
  <advance width="1367"/>
  <unicode hex="0043"/>
  <outline>
    <contour>
      <point x="1265" y="339" type="curve"/>
      <point x="1294" y="317" type="line"/>
      <point x="1163" y="84"/>
      <point x="976" y="-32"/>
      <point x="733" y="-32" type="curve" smooth="yes"/>
      <point x="532" y="-32"/>
      <point x="370" y="37"/>
      <point x="247" y="174" type="curve" smooth="yes"/>
      <point x="131" y="304"/>
      <point x="73" y="465"/>
      <point x="73" y="658" type="curve" smooth="yes"/>
      <point x="73" y="860"/>
      <point x="136" y="1031"/>
      <point x="263" y="1170" type="curve"/>
      <point x="394" y="1315"/>
      <point x="561" y="1387"/>
      <point x="764" y="1387" type="curve" smooth="yes"/>
      <point x="846" y="1387"/>
      <point x="925" y="1371"/>
      <point x="1001" y="1339" type="curve" smooth="yes"/>
      <point x="1077" y="1308"/>
      <point x="1115" y="1292"/>
      <point x="1115" y="1292" type="curve"/>
      <point x="1154" y="1292"/>
      <point x="1182" y="1324"/>
      <point x="1198" y="1387" type="curve"/>
      <point x="1233" y="1387" type="line"/>
      <point x="1265" y="926" type="line"/>
      <point x="1233" y="926" type="line"/>
      <point x="1156" y="1186"/>
      <point x="1005" y="1316"/>
      <point x="780" y="1316" type="curve" smooth="yes"/>
      <point x="635" y="1316"/>
      <point x="520" y="1262"/>
      <point x="437" y="1155" type="curve"/>
      <point x="346" y="1040"/>
      <point x="301" y="873"/>
      <point x="301" y="656" type="curve" smooth="yes"/>
      <point x="301" y="465"/>
      <point x="348" y="317"/>
      <point x="441" y="211" type="curve" smooth="yes"/>
      <point x="531" y="108"/>
      <point x="654" y="57"/>
      <point x="810" y="57" type="curve" smooth="yes"/>
      <point x="903" y="57"/>
      <point x="982" y="76"/>
      <point x="1045" y="113" type="curve" smooth="yes"/>
      <point x="1114" y="154"/>
      <point x="1188" y="230"/>
    </contour>
  </outline>
</glyph>
<glyph name="I" format="1">
  <advance width="682"/>
  <unicode hex="0049"/>
  <outline>
    <contour>
      <point x="632" y="37" type="line"/>
      <point x="632" y="0" type="line"/>
      <point x="51" y="0" type="line"/>
      <point x="51" y="37" type="line"/>
      <point x="100" y="37" type="line" smooth="yes"/>
      <point x="154" y="37"/>
      <point x="194" y="54"/>
      <point x="221" y="87" type="curve" smooth="yes"/>
      <point x="236" y="106"/>
      <point x="244" y="157"/>
      <point x="244" y="240" type="curve" smooth="yes"/>
      <point x="244" y="1117" type="line" smooth="yes"/>
      <point x="244" y="1200"/>
      <point x="237" y="1251"/>
      <point x="223" y="1269" type="curve" smooth="yes"/>
      <point x="195" y="1303"/>
      <point x="154" y="1320"/>
      <point x="100" y="1320" type="curve" smooth="yes"/>
      <point x="51" y="1320" type="line"/>
      <point x="51" y="1355" type="line"/>
      <point x="632" y="1355" type="line"/>
      <point x="632" y="1320" type="line"/>
      <point x="583" y="1320" type="line" smooth="yes"/>
      <point x="528" y="1320"/>
      <point x="488" y="1304"/>
      <point x="463" y="1271" type="curve" smooth="yes"/>
      <point x="446" y="1249"/>
      <point x="437" y="1198"/>
      <point x="437" y="1117" type="curve" smooth="yes"/>
      <point x="437" y="240" type="line" smooth="yes"/>
      <point x="437" y="161"/>
      <point x="445" y="109"/>
      <point x="461" y="85" type="curve" smooth="yes"/>
      <point x="468" y="74"/>
      <point x="485" y="63"/>
      <point x="510" y="52" type="curve"/>
      <point x="536" y="42"/>
      <point x="560" y="37"/>
      <point x="583" y="37" type="curve" smooth="yes"/>
    </contour>
  </outline>
</glyph>
<glyph name="R" format="1">
  <advance width="1367"/>
  <unicode hex="0052"/>
  <outline>
    <contour>
      <point x="1385" y="37" type="curve"/>
      <point x="1385" y="0" type="line"/>
      <point x="1023" y="0" type="line"/>
      <point x="563" y="634" type="line"/>
      <point x="490" y="630"/>
      <point x="443" y="630"/>
      <point x="420" y="634" type="curve"/>
      <point x="420" y="240" type="line" smooth="yes"/>
      <point x="420" y="155"/>
      <point x="430" y="102"/>
      <point x="449" y="83" type="curve"/>
      <point x="473" y="52"/>
      <point x="511" y="37"/>
      <point x="563" y="37" type="curve" smooth="yes"/>
      <point x="617" y="37" type="line"/>
      <point x="617" y="0" type="line"/>
      <point x="35" y="0" type="line"/>
      <point x="35" y="37" type="line"/>
      <point x="87" y="37" type="line" smooth="yes"/>
      <point x="144" y="37"/>
      <point x="185" y="56"/>
      <point x="209" y="93" type="curve" smooth="yes"/>
      <point x="222" y="113"/>
      <point x="229" y="162"/>
      <point x="229" y="240" type="curve" smooth="yes"/>
      <point x="229" y="1117" type="line" smooth="yes"/>
      <point x="229" y="1201"/>
      <point x="220" y="1254"/>
      <point x="203" y="1277" type="curve"/>
      <point x="174" y="1306"/>
      <point x="136" y="1320"/>
      <point x="87" y="1320" type="curve" smooth="yes"/>
      <point x="35" y="1320" type="line"/>
      <point x="35" y="1355" type="line"/>
      <point x="528" y="1355" type="line" smooth="yes"/>
      <point x="677" y="1355"/>
      <point x="784" y="1345"/>
      <point x="849" y="1324" type="curve" smooth="yes"/>
      <point x="922" y="1301"/>
      <point x="980" y="1262"/>
      <point x="1024" y="1208" type="curve" smooth="yes"/>
      <point x="1070" y="1151"/>
      <point x="1093" y="1084"/>
      <point x="1093" y="1009" type="curve" smooth="yes"/>
      <point x="1093" y="826"/>
      <point x="982" y="710"/>
      <point x="760" y="660" type="curve"/>
      <point x="1038" y="270" type="line" smooth="yes"/>
      <point x="1098" y="186"/>
      <point x="1152" y="128"/>
      <point x="1201" y="96" type="curve" smooth="yes"/>
      <point x="1248" y="65"/>
      <point x="1309" y="45"/>
    </contour>
    <contour>
      <point x="869" y="993" type="curve" smooth="yes"/>
      <point x="869" y="1078"/>
      <point x="842" y="1146"/>
      <point x="789" y="1199" type="curve" smooth="yes"/>
      <point x="736" y="1252"/>
      <point x="666" y="1279"/>
      <point x="577" y="1281" type="curve" smooth="yes"/>
      <point x="544" y="1282"/>
      <point x="492" y="1276"/>
      <point x="420" y="1263" type="curve"/>
      <point x="420" y="697" type="line"/>
      <point x="477" y="697" type="line" smooth="yes"/>
      <point x="605" y="697"/>
      <point x="704" y="725"/>
      <point x="773" y="781" type="curve" smooth="yes"/>
      <point x="837" y="833"/>
      <point x="869" y="904"/>
    </contour>
  </outline>
</glyph>
<glyph name="Y" format="1">
  <advance width="1480"/>
  <unicode hex="0059"/>
  <outline>
    <contour>
      <point x="1450" y="1355" type="line"/>
      <point x="1450" y="1320" type="line"/>
      <point x="1424" y="1320" type="line" smooth="yes"/>
      <point x="1367" y="1320"/>
      <point x="1311" y="1290"/>
      <point x="1257" y="1231" type="curve" smooth="yes"/>
      <point x="1236" y="1208"/>
      <point x="1202" y="1161"/>
      <point x="1157" y="1090" type="curve" smooth="yes"/>
      <point x="827" y="575" type="line"/>
      <point x="827" y="236" type="line" smooth="yes"/>
      <point x="827" y="153"/>
      <point x="837" y="101"/>
      <point x="857" y="79" type="curve" smooth="yes"/>
      <point x="881" y="51"/>
      <point x="921" y="37"/>
      <point x="977" y="37" type="curve" smooth="yes"/>
      <point x="1021" y="37" type="line"/>
      <point x="1021" y="0" type="line"/>
      <point x="445" y="0" type="line"/>
      <point x="445" y="37" type="line"/>
      <point x="493" y="37" type="line" smooth="yes"/>
      <point x="548" y="37"/>
      <point x="589" y="55"/>
      <point x="615" y="91" type="curve"/>
      <point x="628" y="112"/>
      <point x="634" y="161"/>
      <point x="634" y="236" type="curve" smooth="yes"/>
      <point x="634" y="558" type="line"/>
      <point x="264" y="1125" type="line" smooth="yes"/>
      <point x="236" y="1168"/>
      <point x="217" y="1196"/>
      <point x="208" y="1208" type="curve" smooth="yes"/>
      <point x="190" y="1233"/>
      <point x="173" y="1252"/>
      <point x="156" y="1265" type="curve" smooth="yes"/>
      <point x="109" y="1302"/>
      <point x="63" y="1320"/>
      <point x="18" y="1320" type="curve"/>
      <point x="18" y="1355" type="line"/>
      <point x="599" y="1355" type="line"/>
      <point x="599" y="1320" type="line"/>
      <point x="569" y="1320" type="line" smooth="yes"/>
      <point x="538" y="1320"/>
      <point x="510" y="1313"/>
      <point x="486" y="1300" type="curve" smooth="yes"/>
      <point x="457" y="1283"/>
      <point x="443" y="1260"/>
      <point x="443" y="1231" type="curve" smooth="yes"/>
      <point x="443" y="1206"/>
      <point x="463" y="1162"/>
      <point x="504" y="1099" type="curve" smooth="yes"/>
      <point x="786" y="664" type="line"/>
      <point x="1054" y="1082" type="line" smooth="yes"/>
      <point x="1095" y="1146"/>
      <point x="1116" y="1192"/>
      <point x="1116" y="1221" type="curve" smooth="yes"/>
      <point x="1116" y="1239"/>
      <point x="1110" y="1256"/>
      <point x="1097" y="1273" type="curve"/>
      <point x="1078" y="1304"/>
      <point x="1038" y="1320"/>
      <point x="977" y="1320" type="curve"/>
      <point x="977" y="1355" type="line"/>
    </contour>
  </outline>
</glyph>
<glyph name="Z" format="1">
  <advance width="1251"/>
  <unicode hex="005A"/>
  <outline>
    <contour>
      <point x="1162" y="364" type="curve"/>
      <point x="1194" y="359" type="line"/>
      <point x="1131" y="0" type="line"/>
      <point x="28" y="0" type="line"/>
      <point x="28" y="37" type="line"/>
      <point x="894" y="1277" type="line"/>
      <point x="463" y="1277" type="line" smooth="yes"/>
      <point x="370" y="1277"/>
      <point x="304" y="1260"/>
      <point x="266" y="1227" type="curve" smooth="yes"/>
      <point x="230" y="1196"/>
      <point x="203" y="1126"/>
      <point x="185" y="1017" type="curve"/>
      <point x="148" y="1017" type="line"/>
      <point x="175" y="1355" type="line"/>
      <point x="1178" y="1355" type="line"/>
      <point x="288" y="83" type="line"/>
      <point x="843" y="83" type="line" smooth="yes"/>
      <point x="938" y="83"/>
      <point x="1009" y="107"/>
      <point x="1057" y="156" type="curve" smooth="yes"/>
      <point x="1094" y="194"/>
      <point x="1129" y="263"/>
    </contour>
  </outline>
</glyph>
<glyph name="bracketleft" format="1">
  <advance width="677"/>
  <unicode hex="005B"/>
  <outline>
    <contour>
      <point x="613" y="-355" type="line"/>
      <point x="613" y="-441" type="line"/>
      <point x="245" y="-441" type="line"/>
      <point x="245" y="1533" type="line"/>
      <point x="613" y="1533" type="line"/>
      <point x="613" y="1448" type="line"/>
      <point x="370" y="1448" type="line"/>
      <point x="370" y="-355" type="line"/>
    </contour>
  </outline>
</glyph>
<glyph name="underscore" format="1">
  <advance width="985"/>
  <unicode hex="005F"/>
  <outline>
    <contour>
      <point x="985" y="-158" type="line"/>
      <point x="985" y="-231" type="line"/>
      <point x="0" y="-231" type="line"/>
      <point x="0" y="-158" type="line"/>
    </contour>
  </outline>
</glyph>
<glyph name="q" format="1">
  <advance width="1024"/>
  <unicode hex="0071"/>
  <outline>
    <contour>
      <point x="1028" y="-402" type="curve"/>
      <point x="1028" y="-439" type="line"/>
      <point x="562" y="-439" type="line"/>
      <point x="562" y="-402" type="line"/>
      <point x="623" y="-402"/>
      <point x="663" y="-393"/>
      <point x="680" y="-376" type="curve" smooth="yes"/>
      <point x="701" y="-355"/>
      <point x="711" y="-309"/>
      <point x="711" y="-236" type="curve" smooth="yes"/>
      <point x="711" y="160" type="line"/>
      <point x="606" y="33"/>
      <point x="506" y="-30"/>
      <point x="410" y="-30" type="curve" smooth="yes"/>
      <point x="320" y="-30"/>
      <point x="242" y="9"/>
      <point x="176" y="88" type="curve"/>
      <point x="103" y="173"/>
      <point x="67" y="283"/>
      <point x="67" y="418" type="curve" smooth="yes"/>
      <point x="67" y="569"/>
      <point x="112" y="694"/>
      <point x="202" y="793" type="curve" smooth="yes"/>
      <point x="293" y="892"/>
      <point x="405" y="942"/>
      <point x="540" y="942" type="curve" smooth="yes"/>
      <point x="624" y="942"/>
      <point x="687" y="921"/>
      <point x="729" y="879" type="curve"/>
      <point x="756" y="892"/>
      <point x="794" y="913"/>
      <point x="843" y="942" type="curve"/>
      <point x="879" y="942" type="line"/>
      <point x="879" y="-236" type="line" smooth="yes"/>
      <point x="879" y="-306"/>
      <point x="888" y="-351"/>
      <point x="907" y="-371" type="curve" smooth="yes"/>
      <point x="926" y="-392"/>
      <point x="966" y="-402"/>
    </contour>
    <contour>
      <point x="711" y="221" type="curve"/>
      <point x="711" y="652" type="line" smooth="yes"/>
      <point x="711" y="799"/>
      <point x="643" y="873"/>
      <point x="508" y="873" type="curve" smooth="yes"/>
      <point x="430" y="873"/>
      <point x="366" y="841"/>
      <point x="317" y="778" type="curve" smooth="yes"/>
      <point x="263" y="710"/>
      <point x="236" y="614"/>
      <point x="236" y="491" type="curve" smooth="yes"/>
      <point x="236" y="370"/>
      <point x="264" y="275"/>
      <point x="320" y="206" type="curve" smooth="yes"/>
      <point x="371" y="143"/>
      <point x="435" y="112"/>
      <point x="514" y="112" type="curve" smooth="yes"/>
      <point x="581" y="112"/>
      <point x="647" y="148"/>
    </contour>
  </outline>
</glyph>
<glyph name="w" format="1">
  <advance width="1480"/>
  <unicode hex="0077"/>
  <outline>
    <contour>
      <point x="1462" y="916" type="line"/>
      <point x="1462" y="879" type="line"/>
      <point x="1402" y="871"/>
      <point x="1359" y="832"/>
      <point x="1332" y="762" type="curve" smooth="yes"/>
      <point x="1026" y="-30" type="line"/>
      <point x="985" y="-30" type="line"/>
      <point x="757" y="558" type="line"/>
      <point x="491" y="-30" type="line"/>
      <point x="453" y="-30" type="line"/>
      <point x="158" y="741" type="line" smooth="yes"/>
      <point x="139" y="789"/>
      <point x="120" y="822"/>
      <point x="100" y="839" type="curve"/>
      <point x="84" y="857"/>
      <point x="55" y="870"/>
      <point x="12" y="879" type="curve"/>
      <point x="12" y="916" type="line"/>
      <point x="398" y="916" type="line"/>
      <point x="398" y="879" type="line"/>
      <point x="327" y="875"/>
      <point x="310" y="854"/>
      <point x="310" y="815" type="curve" smooth="yes"/>
      <point x="310" y="795"/>
      <point x="316" y="770"/>
      <point x="327" y="741" type="curve" smooth="yes"/>
      <point x="524" y="215" type="line"/>
      <point x="721" y="644" type="line"/>
      <point x="670" y="780" type="line" smooth="yes"/>
      <point x="655" y="819"/>
      <point x="634" y="846"/>
      <point x="607" y="863" type="curve" smooth="yes"/>
      <point x="592" y="872"/>
      <point x="565" y="877"/>
      <point x="524" y="879" type="curve"/>
      <point x="524" y="916" type="line"/>
      <point x="961" y="916" type="line"/>
      <point x="961" y="879" type="line"/>
      <point x="910" y="877"/>
      <point x="876" y="869"/>
      <point x="859" y="855" type="curve" smooth="yes"/>
      <point x="845" y="843"/>
      <point x="838" y="824"/>
      <point x="838" y="799" type="curve" smooth="yes"/>
      <point x="838" y="785"/>
      <point x="841" y="773"/>
      <point x="847" y="762" type="curve"/>
      <point x="1056" y="236" type="line"/>
      <point x="1247" y="741" type="line" smooth="yes"/>
      <point x="1262" y="779"/>
      <point x="1269" y="808"/>
      <point x="1269" y="827" type="curve" smooth="yes"/>
      <point x="1269" y="862"/>
      <point x="1237" y="879"/>
      <point x="1172" y="879" type="curve"/>
      <point x="1172" y="916" type="line"/>
    </contour>
  </outline>
</glyph>
<glyph name="braceleft" format="1">
  <advance width="1089"/>
  <unicode hex="007B"/>
  <outline>
    <contour>
      <point x="840" y="-451" type="curve"/>
      <point x="840" y="-491" type="line"/>
      <point x="732" y="-480"/>
      <point x="640" y="-434"/>
      <point x="564" y="-353" type="curve" smooth="yes"/>
      <point x="486" y="-270"/>
      <point x="447" y="-174"/>
      <point x="447" y="-64" type="curve" smooth="yes"/>
      <point x="447" y="-23"/>
      <point x="455" y="36"/>
      <point x="472" y="113" type="curve" smooth="yes"/>
      <point x="489" y="190"/>
      <point x="497" y="243"/>
      <point x="497" y="274" type="curve" smooth="yes"/>
      <point x="497" y="339"/>
      <point x="468" y="396"/>
      <point x="410" y="444" type="curve" smooth="yes"/>
      <point x="360" y="485"/>
      <point x="304" y="510"/>
      <point x="243" y="517" type="curve"/>
      <point x="243" y="574" type="line"/>
      <point x="304" y="581"/>
      <point x="359" y="605"/>
      <point x="409" y="646" type="curve" smooth="yes"/>
      <point x="468" y="693"/>
      <point x="497" y="749"/>
      <point x="497" y="813" type="curve" smooth="yes"/>
      <point x="497" y="845"/>
      <point x="489" y="902"/>
      <point x="472" y="983" type="curve" smooth="yes"/>
      <point x="455" y="1064"/>
      <point x="447" y="1127"/>
      <point x="447" y="1170" type="curve" smooth="yes"/>
      <point x="447" y="1275"/>
      <point x="487" y="1368"/>
      <point x="566" y="1449" type="curve"/>
      <point x="643" y="1526"/>
      <point x="735" y="1571"/>
      <point x="840" y="1582" type="curve"/>
      <point x="840" y="1543" type="line"/>
      <point x="667" y="1500"/>
      <point x="581" y="1402"/>
      <point x="581" y="1249" type="curve" smooth="yes"/>
      <point x="581" y="1214"/>
      <point x="589" y="1162"/>
      <point x="605" y="1095" type="curve" smooth="yes"/>
      <point x="622" y="1028"/>
      <point x="630" y="976"/>
      <point x="630" y="940" type="curve" smooth="yes"/>
      <point x="630" y="743"/>
      <point x="539" y="612"/>
      <point x="357" y="546" type="curve"/>
      <point x="539" y="480"/>
      <point x="630" y="347"/>
      <point x="630" y="147" type="curve" smooth="yes"/>
      <point x="630" y="112"/>
      <point x="622" y="61"/>
      <point x="605" y="-6" type="curve" smooth="yes"/>
      <point x="589" y="-73"/>
      <point x="581" y="-123"/>
      <point x="581" y="-158" type="curve" smooth="yes"/>
      <point x="581" y="-310"/>
      <point x="667" y="-408"/>
    </contour>
  </outline>
</glyph>
<glyph name="uni00AD" format="1">
  <advance width="635"/>
  <unicode hex="00AD"/>
  <outline>
    <contour>
      <point x="517" y="551" type="curve" smooth="yes"/>
      <point x="517" y="520"/>
      <point x="508" y="505"/>
      <point x="490" y="505" type="curve" smooth="yes"/>
      <point x="144" y="505" type="line" smooth="yes"/>
      <point x="127" y="505"/>
      <point x="118" y="520"/>
      <point x="118" y="551" type="curve" smooth="yes"/>
      <point x="118" y="580"/>
      <point x="128" y="594"/>
      <point x="147" y="594" type="curve" smooth="yes"/>
      <point x="488" y="594" type="line" smooth="yes"/>
      <point x="507" y="594"/>
      <point x="517" y="580"/>
    </contour>
  </outline>
</glyph>
<glyph name="degree" format="1">
  <advance width="630"/>
  <unicode hex="00B0"/>
  <outline>
    <contour>
      <point x="532" y="1202" type="curve" smooth="yes"/>
      <point x="532" y="1142"/>
      <point x="511" y="1091"/>
      <point x="468" y="1048" type="curve" smooth="yes"/>
      <point x="426" y="1006"/>
      <point x="375" y="985"/>
      <point x="315" y="985" type="curve" smooth="yes"/>
      <point x="255" y="985"/>
      <point x="204" y="1006"/>
      <point x="162" y="1048" type="curve" smooth="yes"/>
      <point x="120" y="1091"/>
      <point x="99" y="1142"/>
      <point x="99" y="1202" type="curve" smooth="yes"/>
      <point x="99" y="1262"/>
      <point x="120" y="1313"/>
      <point x="162" y="1355" type="curve" smooth="yes"/>
      <point x="204" y="1398"/>
      <point x="255" y="1419"/>
      <point x="315" y="1419" type="curve" smooth="yes"/>
      <point x="375" y="1419"/>
      <point x="426" y="1398"/>
      <point x="468" y="1355" type="curve"/>
      <point x="511" y="1313"/>
      <point x="532" y="1262"/>
    </contour>
    <contour>
      <point x="453" y="1202" type="curve" smooth="yes"/>
      <point x="453" y="1240"/>
      <point x="440" y="1272"/>
      <point x="413" y="1299" type="curve" smooth="yes"/>
      <point x="386" y="1326"/>
      <point x="354" y="1340"/>
      <point x="315" y="1340" type="curve" smooth="yes"/>
      <point x="277" y="1340"/>
      <point x="244" y="1326"/>
      <point x="217" y="1299" type="curve" smooth="yes"/>
      <point x="190" y="1272"/>
      <point x="177" y="1240"/>
      <point x="177" y="1202" type="curve" smooth="yes"/>
      <point x="177" y="1163"/>
      <point x="190" y="1131"/>
      <point x="217" y="1104" type="curve" smooth="yes"/>
      <point x="244" y="1077"/>
      <point x="277" y="1064"/>
      <point x="315" y="1064" type="curve" smooth="yes"/>
      <point x="354" y="1064"/>
      <point x="386" y="1077"/>
      <point x="413" y="1104" type="curve" smooth="yes"/>
      <point x="440" y="1131"/>
      <point x="453" y="1163"/>
    </contour>
  </outline>
</glyph>
<glyph name="uni198D" format="1">
  <advance width="1925"/>
  <unicode hex="198D"/>
  <outline>
    <contour>
      <point x="920" y="380" type="curve" smooth="yes"/>
      <point x="920" y="390"/>
      <point x="928" y="400"/>
      <point x="937" y="400" type="curve" smooth="yes"/>
      <point x="987" y="400" type="line" smooth="yes"/>
      <point x="998" y="400"/>
      <point x="1005" y="390"/>
      <point x="1005" y="380" type="curve" smooth="yes"/>
      <point x="1005" y="331"/>
      <point x="994" y="275"/>
      <point x="984" y="238" type="curve" smooth="yes"/>
      <point x="943" y="84"/>
      <point x="782" y="-20"/>
      <point x="575" y="-20" type="curve" smooth="yes"/>
      <point x="278" y="-20"/>
      <point x="120" y="208"/>
      <point x="120" y="470" type="curve" smooth="yes"/>
      <point x="120" y="732"/>
      <point x="260" y="969"/>
      <point x="505" y="970" type="curve" smooth="yes"/>
      <point x="537" y="970"/>
      <point x="574" y="965"/>
      <point x="605" y="952" type="curve" smooth="yes"/>
      <point x="615" y="948"/>
      <point x="618" y="936"/>
      <point x="613" y="927" type="curve" smooth="yes"/>
      <point x="567" y="848" type="line" smooth="yes"/>
      <point x="563" y="840"/>
      <point x="551" y="840"/>
      <point x="540" y="842" type="curve" smooth="yes"/>
      <point x="531" y="844"/>
      <point x="516" y="845"/>
      <point x="505" y="845" type="curve" smooth="yes"/>
      <point x="345" y="845"/>
      <point x="245" y="664"/>
      <point x="245" y="470" type="curve" smooth="yes"/>
      <point x="245" y="270"/>
      <point x="379" y="105"/>
      <point x="575" y="105" type="curve" smooth="yes"/>
      <point x="772" y="105"/>
      <point x="920" y="209"/>
    </contour>
    <contour>
      <point x="1005" y="380" type="curve" smooth="yes"/>
      <point x="1005" y="209"/>
      <point x="1153" y="105"/>
      <point x="1350" y="105" type="curve" smooth="yes"/>
      <point x="1546" y="105"/>
      <point x="1680" y="270"/>
      <point x="1680" y="470" type="curve" smooth="yes"/>
      <point x="1680" y="660"/>
      <point x="1580" y="845"/>
      <point x="1420" y="845" type="curve" smooth="yes"/>
      <point x="1409" y="845"/>
      <point x="1394" y="844"/>
      <point x="1385" y="842" type="curve" smooth="yes"/>
      <point x="1374" y="840"/>
      <point x="1362" y="840"/>
      <point x="1358" y="848" type="curve" smooth="yes"/>
      <point x="1312" y="927" type="line" smooth="yes"/>
      <point x="1307" y="936"/>
      <point x="1310" y="948"/>
      <point x="1320" y="952" type="curve" smooth="yes"/>
      <point x="1351" y="965"/>
      <point x="1388" y="970"/>
      <point x="1420" y="970" type="curve" smooth="yes"/>
      <point x="1665" y="969"/>
      <point x="1805" y="732"/>
      <point x="1805" y="470" type="curve" smooth="yes"/>
      <point x="1805" y="208"/>
      <point x="1647" y="-20"/>
      <point x="1350" y="-20" type="curve" smooth="yes"/>
      <point x="1143" y="-20"/>
      <point x="982" y="84"/>
      <point x="941" y="238" type="curve" smooth="yes"/>
      <point x="931" y="275"/>
      <point x="920" y="331"/>
      <point x="920" y="380" type="curve" smooth="yes"/>
      <point x="920" y="390"/>
      <point x="927" y="400"/>
      <point x="938" y="400" type="curve" smooth="yes"/>
      <point x="988" y="400" type="line" smooth="yes"/>
      <point x="997" y="400"/>
      <point x="1005" y="390"/>
    </contour>
  </outline>
</glyph>
<glyph name="uni1994" format="1">
  <advance width="1457"/>
  <unicode hex="1994"/>
  <outline>
    <contour>
      <point x="630" y="-20" type="curve" smooth="yes"/>
      <point x="352" y="-20"/>
      <point x="40" y="195"/>
      <point x="40" y="510" type="curve" smooth="yes"/>
      <point x="40" y="717"/>
      <point x="148" y="883"/>
      <point x="285" y="970" type="curve" smooth="yes"/>
      <point x="296" y="977"/>
      <point x="309" y="974"/>
      <point x="317" y="964" type="curve" smooth="yes"/>
      <point x="441" y="815" type="line" smooth="yes"/>
      <point x="449" y="805"/>
      <point x="444" y="793"/>
      <point x="435" y="785" type="curve" smooth="yes"/>
      <point x="348" y="714"/>
      <point x="290" y="631"/>
      <point x="290" y="510" type="curve" smooth="yes"/>
      <point x="290" y="298"/>
      <point x="471" y="210"/>
      <point x="630" y="210" type="curve" smooth="yes"/>
      <point x="907" y="210"/>
      <point x="939" y="485"/>
      <point x="900" y="830" type="curve" smooth="yes"/>
      <point x="846" y="1310"/>
      <point x="983" y="1570"/>
      <point x="1260" y="1570" type="curve" smooth="yes"/>
      <point x="1507" y="1570"/>
      <point x="1610" y="1330"/>
      <point x="1560" y="1080" type="curve" smooth="yes"/>
      <point x="1558" y="1070"/>
      <point x="1552" y="1060"/>
      <point x="1543" y="1060" type="curve" smooth="yes"/>
      <point x="1428" y="1061" type="line" smooth="yes"/>
      <point x="1417" y="1061"/>
      <point x="1410" y="1070"/>
      <point x="1410" y="1080" type="curve" smooth="yes"/>
      <point x="1410" y="1269"/>
      <point x="1334" y="1350"/>
      <point x="1260" y="1350" type="curve" smooth="yes"/>
      <point x="1194" y="1350"/>
      <point x="1092" y="1243"/>
      <point x="1150" y="830" type="curve" smooth="yes"/>
      <point x="1212" y="386"/>
      <point x="1090" y="-20"/>
    </contour>
  </outline>
</glyph>
<glyph name="uni1998" format="1">
  <advance width="1851"/>
  <unicode hex="1998"/>
  <outline>
    <contour>
      <point x="1286" y="740" type="curve" smooth="yes"/>
      <point x="1117" y="740"/>
      <point x="981" y="655"/>
      <point x="921" y="541" type="curve"/>
      <point x="821" y="755" type="line"/>
      <point x="903" y="864"/>
      <point x="1089" y="970"/>
      <point x="1286" y="970" type="curve" smooth="yes"/>
      <point x="1563" y="970"/>
      <point x="1771" y="762"/>
      <point x="1771" y="480" type="curve" smooth="yes"/>
      <point x="1771" y="238"/>
      <point x="1601" y="-20"/>
      <point x="1326" y="-20" type="curve" smooth="yes"/>
      <point x="1249" y="-20"/>
      <point x="1132" y="6"/>
      <point x="1081" y="35" type="curve" smooth="yes"/>
      <point x="1072" y="40"/>
      <point x="1068" y="51"/>
      <point x="1073" y="60" type="curve" smooth="yes"/>
      <point x="1164" y="229" type="line" smooth="yes"/>
      <point x="1168" y="237"/>
      <point x="1183" y="239"/>
      <point x="1191" y="235" type="curve" smooth="yes"/>
      <point x="1227" y="215"/>
      <point x="1286" y="210"/>
      <point x="1326" y="210" type="curve" smooth="yes"/>
      <point x="1436" y="210"/>
      <point x="1521" y="330"/>
      <point x="1521" y="480" type="curve" smooth="yes"/>
      <point x="1521" y="620"/>
      <point x="1422" y="740"/>
    </contour>
    <contour>
      <point x="495" y="-20" type="curve" smooth="yes"/>
      <point x="348" y="-20"/>
      <point x="222" y="38"/>
      <point x="115" y="175" type="curve" smooth="yes"/>
      <point x="107" y="185"/>
      <point x="112" y="198"/>
      <point x="121" y="207" type="curve" smooth="yes"/>
      <point x="250" y="331" type="line" smooth="yes"/>
      <point x="259" y="340"/>
      <point x="273" y="334"/>
      <point x="280" y="325" type="curve" smooth="yes"/>
      <point x="351" y="238"/>
      <point x="424" y="210"/>
      <point x="495" y="210" type="curve" smooth="yes"/>
      <point x="612" y="210"/>
      <point x="715" y="299"/>
      <point x="715" y="471" type="curve" smooth="yes"/>
      <point x="715" y="640"/>
      <point x="617" y="740"/>
      <point x="485" y="740" type="curve" smooth="yes"/>
      <point x="424" y="740"/>
      <point x="341" y="712"/>
      <point x="280" y="635" type="curve" smooth="yes"/>
      <point x="272" y="625"/>
      <point x="260" y="621"/>
      <point x="250" y="629" type="curve" smooth="yes"/>
      <point x="111" y="743" type="line" smooth="yes"/>
      <point x="101" y="751"/>
      <point x="97" y="765"/>
      <point x="105" y="775" type="curve" smooth="yes"/>
      <point x="212" y="912"/>
      <point x="338" y="970"/>
      <point x="485" y="970" type="curve" smooth="yes"/>
      <point x="750" y="970"/>
      <point x="965" y="759"/>
      <point x="965" y="471" type="curve" smooth="yes"/>
      <point x="965" y="167"/>
      <point x="751" y="-20"/>
    </contour>
  </outline>
</glyph>
<glyph name="uni1999" format="1">
  <advance width="1260"/>
  <unicode hex="1999"/>
  <outline>
    <contour>
      <point x="620" y="90" type="curve" smooth="yes"/>
      <point x="859" y="90"/>
      <point x="1005" y="283"/>
      <point x="1005" y="510" type="curve" smooth="yes"/>
      <point x="1005" y="671"/>
      <point x="932" y="784"/>
      <point x="845" y="865" type="curve" smooth="yes"/>
      <point x="836" y="873"/>
      <point x="832" y="884"/>
      <point x="839" y="895" type="curve"/>
      <point x="893" y="964" type="line"/>
      <point x="900" y="975"/>
      <point x="915" y="978"/>
      <point x="925" y="970" type="curve" smooth="yes"/>
      <point x="1052" y="863"/>
      <point x="1130" y="717"/>
      <point x="1130" y="510" type="curve" smooth="yes"/>
      <point x="1130" y="195"/>
      <point x="898" y="-20"/>
      <point x="620" y="-20" type="curve" smooth="yes"/>
      <point x="342" y="-20"/>
      <point x="110" y="195"/>
      <point x="110" y="510" type="curve" smooth="yes"/>
      <point x="110" y="717"/>
      <point x="188" y="863"/>
      <point x="315" y="970" type="curve" smooth="yes"/>
      <point x="325" y="978"/>
      <point x="340" y="975"/>
      <point x="347" y="964" type="curve"/>
      <point x="401" y="895" type="line"/>
      <point x="408" y="884"/>
      <point x="404" y="873"/>
      <point x="395" y="865" type="curve" smooth="yes"/>
      <point x="308" y="784"/>
      <point x="235" y="671"/>
      <point x="235" y="510" type="curve" smooth="yes"/>
      <point x="235" y="283"/>
      <point x="381" y="90"/>
    </contour>
    <contour>
      <point x="615" y="-740" type="curve" smooth="yes"/>
      <point x="378" y="-740"/>
      <point x="209" y="-584"/>
      <point x="169" y="-472" type="curve" smooth="yes"/>
      <point x="165" y="-462"/>
      <point x="173" y="-450"/>
      <point x="183" y="-446" type="curve" smooth="yes"/>
      <point x="215" y="-435" type="line" smooth="yes"/>
      <point x="223" y="-432"/>
      <point x="235" y="-440"/>
      <point x="240" y="-450" type="curve" smooth="yes"/>
      <point x="285" y="-540"/>
      <point x="409" y="-635"/>
      <point x="615" y="-635" type="curve" smooth="yes"/>
      <point x="832" y="-635"/>
      <point x="1010" y="-430"/>
      <point x="1010" y="-140" type="curve" smooth="yes"/>
      <point x="1010" y="165"/>
      <point x="812" y="360"/>
      <point x="615" y="360" type="curve" smooth="yes"/>
      <point x="504" y="360"/>
      <point x="390" y="296"/>
      <point x="317" y="193" type="curve"/>
      <point x="232" y="271" type="line"/>
      <point x="325" y="391"/>
      <point x="460" y="460"/>
      <point x="615" y="460" type="curve" smooth="yes"/>
      <point x="902" y="460"/>
      <point x="1125" y="223"/>
      <point x="1125" y="-140" type="curve" smooth="yes"/>
      <point x="1125" y="-503"/>
      <point x="922" y="-740"/>
    </contour>
  </outline>
</glyph>
<glyph name="uni199C" format="1">
  <advance width="1725"/>
  <unicode hex="199C"/>
  <outline>
    <contour>
      <point x="1350" y="-625" type="curve" smooth="yes"/>
      <point x="1409" y="-625"/>
      <point x="1430" y="-557"/>
      <point x="1430" y="-475" type="curve" smooth="yes"/>
      <point x="1430" y="152" type="line"/>
      <point x="1555" y="480" type="line"/>
      <point x="1555" y="-475" type="line" smooth="yes"/>
      <point x="1555" y="-633"/>
      <point x="1488" y="-740"/>
      <point x="1350" y="-740" type="curve" smooth="yes"/>
      <point x="1239" y="-740"/>
      <point x="1179" y="-662"/>
      <point x="1140" y="-583" type="curve" smooth="yes"/>
      <point x="1101" y="-504"/>
      <point x="1055" y="-415"/>
      <point x="975" y="-415" type="curve" smooth="yes"/>
      <point x="892" y="-415"/>
      <point x="850" y="-468"/>
      <point x="850" y="-530" type="curve" smooth="yes"/>
      <point x="850" y="-603"/>
      <point x="906" y="-665"/>
      <point x="980" y="-665" type="curve" smooth="yes"/>
      <point x="989" y="-665"/>
      <point x="999" y="-679"/>
      <point x="999" y="-687" type="curve" smooth="yes"/>
      <point x="999" y="-724" type="line" smooth="yes"/>
      <point x="999" y="-734"/>
      <point x="990" y="-740"/>
      <point x="980" y="-740" type="curve" smooth="yes"/>
      <point x="854" y="-740"/>
      <point x="758" y="-658"/>
      <point x="760" y="-530" type="curve" smooth="yes"/>
      <point x="762" y="-398"/>
      <point x="862" y="-315"/>
      <point x="975" y="-315" type="curve" smooth="yes"/>
      <point x="1100" y="-315"/>
      <point x="1166" y="-406"/>
      <point x="1204" y="-478" type="curve" smooth="yes"/>
      <point x="1243" y="-553"/>
      <point x="1277" y="-625"/>
    </contour>
    <contour>
      <point x="530" y="105" type="curve" smooth="yes"/>
      <point x="706" y="105"/>
      <point x="762" y="258"/>
      <point x="795" y="475" type="curve" smooth="yes"/>
      <point x="831" y="709"/>
      <point x="904" y="970"/>
      <point x="1205" y="970" type="curve" smooth="yes"/>
      <point x="1462" y="970"/>
      <point x="1595" y="742"/>
      <point x="1595" y="480" type="curve" smooth="yes"/>
      <point x="1595" y="208"/>
      <point x="1505" y="-19"/>
      <point x="1260" y="-20" type="curve" smooth="yes"/>
      <point x="1228" y="-20"/>
      <point x="1191" y="-15"/>
      <point x="1160" y="-2" type="curve" smooth="yes"/>
      <point x="1150" y="2"/>
      <point x="1147" y="14"/>
      <point x="1152" y="23" type="curve" smooth="yes"/>
      <point x="1198" y="102" type="line" smooth="yes"/>
      <point x="1202" y="110"/>
      <point x="1214" y="110"/>
      <point x="1225" y="108" type="curve" smooth="yes"/>
      <point x="1234" y="106"/>
      <point x="1249" y="105"/>
      <point x="1260" y="105" type="curve" smooth="yes"/>
      <point x="1420" y="105"/>
      <point x="1470" y="280"/>
      <point x="1470" y="480" type="curve" smooth="yes"/>
      <point x="1470" y="680"/>
      <point x="1361" y="845"/>
      <point x="1205" y="845" type="curve" smooth="yes"/>
      <point x="1006" y="845"/>
      <point x="952" y="659"/>
      <point x="925" y="475" type="curve" smooth="yes"/>
      <point x="884" y="198"/>
      <point x="788" y="-20"/>
      <point x="530" y="-20" type="curve" smooth="yes"/>
      <point x="253" y="-20"/>
      <point x="120" y="168"/>
      <point x="120" y="470" type="curve" smooth="yes"/>
      <point x="120" y="692"/>
      <point x="203" y="920"/>
      <point x="415" y="970" type="curve" smooth="yes"/>
      <point x="428" y="973"/>
      <point x="436" y="973"/>
      <point x="440" y="965" type="curve" smooth="yes"/>
      <point x="485" y="885" type="line" smooth="yes"/>
      <point x="490" y="877"/>
      <point x="489" y="863"/>
      <point x="475" y="860" type="curve" smooth="yes"/>
      <point x="298" y="815"/>
      <point x="245" y="630"/>
      <point x="245" y="470" type="curve" smooth="yes"/>
      <point x="245" y="230"/>
      <point x="354" y="105"/>
    </contour>
  </outline>
</glyph>
<glyph name="uni19A2" format="1">
  <advance width="1180"/>
  <unicode hex="19A2"/>
  <outline>
    <contour>
      <point x="630" y="210" type="curve" smooth="yes"/>
      <point x="789" y="210"/>
      <point x="970" y="298"/>
      <point x="970" y="510" type="curve" smooth="yes"/>
      <point x="970" y="631"/>
      <point x="912" y="714"/>
      <point x="825" y="785" type="curve" smooth="yes"/>
      <point x="816" y="793"/>
      <point x="811" y="805"/>
      <point x="819" y="815" type="curve" smooth="yes"/>
      <point x="943" y="964" type="line" smooth="yes"/>
      <point x="951" y="974"/>
      <point x="964" y="977"/>
      <point x="975" y="970" type="curve" smooth="yes"/>
      <point x="1112" y="883"/>
      <point x="1220" y="717"/>
      <point x="1220" y="510" type="curve" smooth="yes"/>
      <point x="1220" y="195"/>
      <point x="908" y="-20"/>
      <point x="630" y="-20" type="curve" smooth="yes"/>
      <point x="352" y="-20"/>
      <point x="40" y="195"/>
      <point x="40" y="510" type="curve" smooth="yes"/>
      <point x="40" y="717"/>
      <point x="148" y="883"/>
      <point x="285" y="970" type="curve" smooth="yes"/>
      <point x="296" y="977"/>
      <point x="309" y="974"/>
      <point x="317" y="964" type="curve" smooth="yes"/>
      <point x="441" y="815" type="line" smooth="yes"/>
      <point x="449" y="805"/>
      <point x="444" y="793"/>
      <point x="435" y="785" type="curve" smooth="yes"/>
      <point x="348" y="714"/>
      <point x="290" y="631"/>
      <point x="290" y="510" type="curve" smooth="yes"/>
      <point x="290" y="298"/>
      <point x="471" y="210"/>
    </contour>
  </outline>
</glyph>
<glyph name="uni19A3" format="1">
  <advance width="1477"/>
  <unicode hex="19A3"/>
  <outline>
    <contour>
      <point x="958" y="-678" type="curve" smooth="yes"/>
      <point x="1161" y="-498"/>
      <point x="1262" y="-207"/>
      <point x="1262" y="126" type="curve" smooth="yes"/>
      <point x="1262" y="473"/>
      <point x="1030" y="847"/>
      <point x="562" y="847" type="curve" smooth="yes"/>
      <point x="421" y="847"/>
      <point x="235" y="793"/>
      <point x="235" y="709" type="curve" smooth="yes"/>
      <point x="235" y="639"/>
      <point x="318" y="603"/>
      <point x="419" y="569" type="curve" smooth="yes"/>
      <point x="573" y="517"/>
      <point x="767" y="449"/>
      <point x="767" y="237" type="curve" smooth="yes"/>
      <point x="767" y="79"/>
      <point x="648" y="-23"/>
      <point x="477" y="-23" type="curve" smooth="yes"/>
      <point x="314" y="-23"/>
      <point x="206" y="72"/>
      <point x="206" y="201" type="curve" smooth="yes"/>
      <point x="206" y="218"/>
      <point x="207" y="229"/>
      <point x="210" y="245" type="curve"/>
      <point x="213" y="254"/>
      <point x="223" y="261"/>
      <point x="234" y="257" type="curve" smooth="yes"/>
      <point x="318" y="226" type="line" smooth="yes"/>
      <point x="327" y="223"/>
      <point x="328" y="211"/>
      <point x="328" y="202" type="curve" smooth="yes"/>
      <point x="328" y="132"/>
      <point x="415" y="102"/>
      <point x="477" y="102" type="curve" smooth="yes"/>
      <point x="567" y="102"/>
      <point x="642" y="155"/>
      <point x="642" y="237" type="curve" smooth="yes"/>
      <point x="642" y="387"/>
      <point x="495" y="417"/>
      <point x="356" y="463" type="curve" smooth="yes"/>
      <point x="230" y="505"/>
      <point x="110" y="561"/>
      <point x="110" y="712" type="curve" smooth="yes"/>
      <point x="110" y="868"/>
      <point x="312" y="972"/>
      <point x="562" y="972" type="curve" smooth="yes"/>
      <point x="1100" y="972"/>
      <point x="1377" y="549"/>
      <point x="1377" y="126" type="curve" smooth="yes"/>
      <point x="1377" y="-247"/>
      <point x="1226" y="-534"/>
      <point x="1007" y="-736" type="curve" smooth="yes"/>
      <point x="1000" y="-742"/>
      <point x="992" y="-740"/>
      <point x="986" y="-734" type="curve" smooth="yes"/>
      <point x="954" y="-698" type="line" smooth="yes"/>
      <point x="949" y="-692"/>
      <point x="950" y="-686"/>
    </contour>
  </outline>
</glyph>
<glyph name="uni19A5" format="1">
  <advance width="1180"/>
  <unicode hex="19A5"/>
  <outline>
    <contour>
      <point x="630" y="210" type="curve" smooth="yes"/>
      <point x="789" y="210"/>
      <point x="970" y="298"/>
      <point x="970" y="510" type="curve" smooth="yes"/>
      <point x="970" y="631"/>
      <point x="912" y="714"/>
      <point x="825" y="785" type="curve" smooth="yes"/>
      <point x="816" y="793"/>
      <point x="811" y="805"/>
      <point x="819" y="815" type="curve" smooth="yes"/>
      <point x="943" y="964" type="line" smooth="yes"/>
      <point x="951" y="974"/>
      <point x="964" y="977"/>
      <point x="975" y="970" type="curve" smooth="yes"/>
      <point x="1112" y="883"/>
      <point x="1220" y="717"/>
      <point x="1220" y="510" type="curve" smooth="yes"/>
      <point x="1220" y="195"/>
      <point x="908" y="-20"/>
      <point x="630" y="-20" type="curve" smooth="yes"/>
      <point x="352" y="-20"/>
      <point x="40" y="195"/>
      <point x="40" y="510" type="curve" smooth="yes"/>
      <point x="40" y="717"/>
      <point x="148" y="883"/>
      <point x="285" y="970" type="curve" smooth="yes"/>
      <point x="296" y="977"/>
      <point x="309" y="974"/>
      <point x="317" y="964" type="curve" smooth="yes"/>
      <point x="441" y="815" type="line" smooth="yes"/>
      <point x="449" y="805"/>
      <point x="444" y="793"/>
      <point x="435" y="785" type="curve" smooth="yes"/>
      <point x="348" y="714"/>
      <point x="290" y="631"/>
      <point x="290" y="510" type="curve" smooth="yes"/>
      <point x="290" y="298"/>
      <point x="471" y="210"/>
    </contour>
    <contour>
      <point x="322" y="1110" type="curve" smooth="yes"/>
      <point x="312" y="1110"/>
      <point x="302" y="1117"/>
      <point x="302" y="1128" type="curve" smooth="yes"/>
      <point x="302" y="1288" type="line" smooth="yes"/>
      <point x="302" y="1297"/>
      <point x="312" y="1305"/>
      <point x="322" y="1305" type="curve" smooth="yes"/>
      <point x="419" y="1305"/>
      <point x="547" y="1334"/>
      <point x="547" y="1505" type="curve" smooth="yes"/>
      <point x="547" y="1515"/>
      <point x="555" y="1525"/>
      <point x="564" y="1525" type="curve" smooth="yes"/>
      <point x="694" y="1525" type="line" smooth="yes"/>
      <point x="705" y="1525"/>
      <point x="712" y="1515"/>
      <point x="712" y="1505" type="curve" smooth="yes"/>
      <point x="712" y="1310"/>
      <point x="528" y="1110"/>
    </contour>
    <contour>
      <point x="937" y="1110" type="curve" smooth="yes"/>
      <point x="731" y="1110"/>
      <point x="547" y="1310"/>
      <point x="547" y="1505" type="curve" smooth="yes"/>
      <point x="547" y="1515"/>
      <point x="554" y="1525"/>
      <point x="565" y="1525" type="curve" smooth="yes"/>
      <point x="695" y="1525" type="line" smooth="yes"/>
      <point x="704" y="1525"/>
      <point x="712" y="1515"/>
      <point x="712" y="1505" type="curve" smooth="yes"/>
      <point x="712" y="1334"/>
      <point x="840" y="1305"/>
      <point x="937" y="1305" type="curve" smooth="yes"/>
      <point x="947" y="1305"/>
      <point x="957" y="1297"/>
      <point x="957" y="1288" type="curve" smooth="yes"/>
      <point x="957" y="1128" type="line" smooth="yes"/>
      <point x="957" y="1117"/>
      <point x="947" y="1110"/>
    </contour>
  </outline>
</glyph>
<glyph name="uni19B4" format="1">
  <advance width="1582"/>
  <unicode hex="19B4"/>
  <outline>
    <contour>
      <point x="470" y="730" type="curve" smooth="yes"/>
      <point x="470" y="666"/>
      <point x="470" y="518"/>
      <point x="470" y="470" type="curve" smooth="yes"/>
      <point x="470" y="340"/>
      <point x="499" y="210"/>
      <point x="635" y="210" type="curve" smooth="yes"/>
      <point x="738" y="210"/>
      <point x="896" y="295"/>
      <point x="1009" y="415" type="curve"/>
      <point x="1079" y="196" type="line"/>
      <point x="939" y="68"/>
      <point x="770" y="-20"/>
      <point x="635" y="-20" type="curve" smooth="yes"/>
      <point x="308" y="-20"/>
      <point x="220" y="208"/>
      <point x="220" y="470" type="curve" smooth="yes"/>
      <point x="220" y="515"/>
      <point x="220" y="678"/>
      <point x="220" y="720" type="curve" smooth="yes"/>
      <point x="220" y="754"/>
      <point x="199" y="785"/>
      <point x="170" y="785" type="curve" smooth="yes"/>
      <point x="122" y="785"/>
      <point x="108" y="743"/>
      <point x="90" y="710" type="curve" smooth="yes"/>
      <point x="86" y="702"/>
      <point x="68" y="704"/>
      <point x="61" y="710" type="curve" smooth="yes"/>
      <point x="-17" y="773" type="line" smooth="yes"/>
      <point x="-25" y="780"/>
      <point x="-28" y="796"/>
      <point x="-25" y="805" type="curve" smooth="yes"/>
      <point x="4" y="901"/>
      <point x="100" y="970"/>
      <point x="220" y="970" type="curve" smooth="yes"/>
      <point x="356" y="970"/>
      <point x="470" y="888"/>
    </contour>
    <contour>
      <point x="1000" y="-305" type="curve" smooth="yes"/>
      <point x="1000" y="930" type="line" smooth="yes"/>
      <point x="1000" y="940"/>
      <point x="1007" y="950"/>
      <point x="1018" y="950" type="curve" smooth="yes"/>
      <point x="1233" y="950" type="line" smooth="yes"/>
      <point x="1242" y="950"/>
      <point x="1250" y="940"/>
      <point x="1250" y="930" type="curve" smooth="yes"/>
      <point x="1250" y="-305" type="line" smooth="yes"/>
      <point x="1250" y="-455"/>
      <point x="1307" y="-520"/>
      <point x="1370" y="-520" type="curve" smooth="yes"/>
      <point x="1444" y="-520"/>
      <point x="1520" y="-439"/>
      <point x="1520" y="-250" type="curve" smooth="yes"/>
      <point x="1520" y="-240"/>
      <point x="1527" y="-231"/>
      <point x="1538" y="-231" type="curve" smooth="yes"/>
      <point x="1653" y="-230" type="line" smooth="yes"/>
      <point x="1662" y="-230"/>
      <point x="1668" y="-240"/>
      <point x="1670" y="-250" type="curve" smooth="yes"/>
      <point x="1720" y="-500"/>
      <point x="1617" y="-740"/>
      <point x="1370" y="-740" type="curve" smooth="yes"/>
      <point x="1142" y="-740"/>
      <point x="1000" y="-582"/>
    </contour>
  </outline>
</glyph>
<glyph name="uni19B5" format="1">
  <advance width="1289"/>
  <unicode hex="19B5"/>
  <outline>
    <contour>
      <point x="876" y="140" type="curve" smooth="yes"/>
      <point x="876" y="261"/>
      <point x="941" y="404"/>
      <point x="941" y="530" type="curve" smooth="yes"/>
      <point x="941" y="700"/>
      <point x="842" y="845"/>
      <point x="606" y="845" type="curve" smooth="yes"/>
      <point x="396" y="845"/>
      <point x="246" y="668"/>
      <point x="246" y="415" type="curve" smooth="yes"/>
      <point x="246" y="246"/>
      <point x="338" y="105"/>
      <point x="456" y="105" type="curve" smooth="yes"/>
      <point x="479" y="105"/>
      <point x="498" y="112"/>
      <point x="521" y="123" type="curve" smooth="yes"/>
      <point x="530" y="127"/>
      <point x="544" y="125"/>
      <point x="548" y="117" type="curve" smooth="yes"/>
      <point x="594" y="38" type="line" smooth="yes"/>
      <point x="599" y="29"/>
      <point x="596" y="18"/>
      <point x="586" y="13" type="curve" smooth="yes"/>
      <point x="542" y="-9"/>
      <point x="498" y="-20"/>
      <point x="456" y="-20" type="curve" smooth="yes"/>
      <point x="254" y="-20"/>
      <point x="123" y="170"/>
      <point x="121" y="415" type="curve" smooth="yes"/>
      <point x="119" y="711"/>
      <point x="291" y="970"/>
      <point x="606" y="970" type="curve" smooth="yes"/>
      <point x="933" y="970"/>
      <point x="1061" y="762"/>
      <point x="1061" y="530" type="curve" smooth="yes"/>
      <point x="1061" y="389"/>
      <point x="991" y="239"/>
      <point x="991" y="150" type="curve" smooth="yes"/>
      <point x="991" y="111"/>
      <point x="1017" y="80"/>
      <point x="1051" y="80" type="curve" smooth="yes"/>
      <point x="1099" y="80"/>
      <point x="1143" y="137"/>
      <point x="1151" y="185" type="curve" smooth="yes"/>
      <point x="1153" y="194"/>
      <point x="1168" y="196"/>
      <point x="1175" y="190" type="curve" smooth="yes"/>
      <point x="1215" y="151" type="line" smooth="yes"/>
      <point x="1221" y="146"/>
      <point x="1219" y="135"/>
      <point x="1216" y="125" type="curve" smooth="yes"/>
      <point x="1197" y="49"/>
      <point x="1141" y="-20"/>
      <point x="1051" y="-20" type="curve" smooth="yes"/>
      <point x="945" y="-20"/>
      <point x="876" y="52"/>
    </contour>
  </outline>
</glyph>
<glyph name="uni19B9" format="1">
  <advance width="1145"/>
  <unicode hex="19B9"/>
  <outline>
    <contour>
      <point x="541" y="905" type="line"/>
      <point x="701" y="905" type="line"/>
      <point x="701" y="1020" type="line" smooth="yes"/>
      <point x="701" y="1114"/>
      <point x="722" y="1246"/>
      <point x="864" y="1262" type="curve"/>
      <point x="798" y="1404" type="line"/>
      <point x="635" y="1374"/>
      <point x="541" y="1212"/>
      <point x="541" y="1020" type="curve" smooth="yes"/>
    </contour>
    <contour>
      <point x="615" y="1570" type="curve" smooth="yes"/>
      <point x="932" y="1570"/>
      <point x="1125" y="1314"/>
      <point x="1125" y="770" type="curve" smooth="yes"/>
      <point x="1125" y="234"/>
      <point x="942" y="-20"/>
      <point x="615" y="-20" type="curve" smooth="yes"/>
      <point x="278" y="-20"/>
      <point x="100" y="238"/>
      <point x="100" y="770" type="curve" smooth="yes"/>
      <point x="100" y="1312"/>
      <point x="288" y="1570"/>
    </contour>
    <contour>
      <point x="615" y="1340" type="curve" smooth="yes"/>
      <point x="459" y="1340"/>
      <point x="350" y="1201"/>
      <point x="350" y="770" type="curve" smooth="yes"/>
      <point x="350" y="320"/>
      <point x="469" y="210"/>
      <point x="615" y="210" type="curve" smooth="yes"/>
      <point x="762" y="210"/>
      <point x="875" y="330"/>
      <point x="875" y="770" type="curve" smooth="yes"/>
      <point x="875" y="1201"/>
      <point x="752" y="1340"/>
    </contour>
    <contour>
      <point x="975" y="600" type="curve"/>
      <point x="995" y="805" type="line"/>
      <point x="931" y="908"/>
      <point x="769" y="970"/>
      <point x="615" y="970" type="curve" smooth="yes"/>
      <point x="447" y="970"/>
      <point x="280" y="906"/>
      <point x="220" y="795" type="curve"/>
      <point x="245" y="600" type="line"/>
      <point x="291" y="737"/>
      <point x="459" y="810"/>
      <point x="615" y="810" type="curve" smooth="yes"/>
      <point x="762" y="810"/>
      <point x="934" y="745"/>
    </contour>
  </outline>
</glyph>
<glyph name="uni19BD" format="1">
  <advance width="1700"/>
  <unicode hex="19BD"/>
  <outline>
    <contour>
      <point x="1495" y="930" type="curve" smooth="yes"/>
      <point x="1495" y="-305" type="line" smooth="yes"/>
      <point x="1495" y="-543"/>
      <point x="1333" y="-740"/>
      <point x="1085" y="-740" type="curve" smooth="yes"/>
      <point x="827" y="-740"/>
      <point x="680" y="-543"/>
      <point x="680" y="-305" type="curve" smooth="yes"/>
      <point x="680" y="93" type="line"/>
      <point x="931" y="384" type="line"/>
      <point x="931" y="-305" type="line" smooth="yes"/>
      <point x="931" y="-437"/>
      <point x="996" y="-510"/>
      <point x="1085" y="-510" type="curve" smooth="yes"/>
      <point x="1174" y="-510"/>
      <point x="1245" y="-436"/>
      <point x="1245" y="-305" type="curve" smooth="yes"/>
      <point x="1245" y="930" type="line" smooth="yes"/>
      <point x="1245" y="940"/>
      <point x="1252" y="950"/>
      <point x="1263" y="950" type="curve" smooth="yes"/>
      <point x="1478" y="950" type="line" smooth="yes"/>
      <point x="1487" y="950"/>
      <point x="1495" y="940"/>
    </contour>
    <contour>
      <point x="505" y="970" type="curve" smooth="yes"/>
      <point x="772" y="970"/>
      <point x="975" y="753"/>
      <point x="975" y="470" type="curve" smooth="yes"/>
      <point x="975" y="207"/>
      <point x="782" y="-20"/>
      <point x="505" y="-20" type="curve" smooth="yes"/>
      <point x="218" y="-20"/>
      <point x="50" y="208"/>
      <point x="50" y="470" type="curve" smooth="yes"/>
      <point x="50" y="742"/>
      <point x="228" y="970"/>
    </contour>
    <contour>
      <point x="505" y="740" type="curve" smooth="yes"/>
      <point x="369" y="740"/>
      <point x="300" y="611"/>
      <point x="300" y="470" type="curve" smooth="yes"/>
      <point x="300" y="340"/>
      <point x="369" y="210"/>
      <point x="505" y="210" type="curve" smooth="yes"/>
      <point x="642" y="210"/>
      <point x="725" y="337"/>
      <point x="725" y="470" type="curve" smooth="yes"/>
      <point x="725" y="608"/>
      <point x="642" y="740"/>
    </contour>
  </outline>
</glyph>
<glyph name="uni19C4" format="1">
  <advance width="1270"/>
  <unicode hex="19C4"/>
  <outline>
    <contour>
      <point x="230" y="-395" type="curve" smooth="yes"/>
      <point x="230" y="-461"/>
      <point x="275" y="-505"/>
      <point x="340" y="-505" type="curve" smooth="yes"/>
      <point x="407" y="-505"/>
      <point x="445" y="-460"/>
      <point x="445" y="-395" type="curve" smooth="yes"/>
      <point x="445" y="-329"/>
      <point x="405" y="-290"/>
      <point x="340" y="-290" type="curve" smooth="yes"/>
      <point x="275" y="-290"/>
      <point x="230" y="-329"/>
    </contour>
    <contour>
      <point x="630" y="190" type="curve" smooth="yes"/>
      <point x="789" y="190"/>
      <point x="970" y="298"/>
      <point x="970" y="510" type="curve" smooth="yes"/>
      <point x="970" y="631"/>
      <point x="912" y="714"/>
      <point x="825" y="785" type="curve" smooth="yes"/>
      <point x="816" y="793"/>
      <point x="811" y="805"/>
      <point x="819" y="815" type="curve" smooth="yes"/>
      <point x="943" y="964" type="line" smooth="yes"/>
      <point x="951" y="974"/>
      <point x="964" y="977"/>
      <point x="975" y="970" type="curve" smooth="yes"/>
      <point x="1112" y="883"/>
      <point x="1220" y="717"/>
      <point x="1220" y="510" type="curve" smooth="yes"/>
      <point x="1220" y="195"/>
      <point x="908" y="-20"/>
      <point x="630" y="-20" type="curve" smooth="yes"/>
      <point x="352" y="-20"/>
      <point x="40" y="195"/>
      <point x="40" y="510" type="curve" smooth="yes"/>
      <point x="40" y="717"/>
      <point x="148" y="883"/>
      <point x="285" y="970" type="curve" smooth="yes"/>
      <point x="296" y="977"/>
      <point x="309" y="974"/>
      <point x="317" y="964" type="curve" smooth="yes"/>
      <point x="441" y="815" type="line" smooth="yes"/>
      <point x="449" y="805"/>
      <point x="444" y="793"/>
      <point x="435" y="785" type="curve" smooth="yes"/>
      <point x="348" y="714"/>
      <point x="290" y="631"/>
      <point x="290" y="510" type="curve" smooth="yes"/>
      <point x="290" y="298"/>
      <point x="471" y="190"/>
    </contour>
    <contour>
      <point x="580" y="-740" type="curve" smooth="yes"/>
      <point x="228" y="-737"/>
      <point x="40" y="-591"/>
      <point x="40" y="-400" type="curve" smooth="yes"/>
      <point x="40" y="-241"/>
      <point x="172" y="-124"/>
      <point x="340" y="-124" type="curve" smooth="yes"/>
      <point x="510" y="-124"/>
      <point x="620" y="-240"/>
      <point x="620" y="-380" type="curve" smooth="yes"/>
      <point x="620" y="-437"/>
      <point x="575" y="-500"/>
      <point x="527" y="-530" type="curve"/>
      <point x="550" y="-530" type="line" smooth="yes"/>
      <point x="801" y="-530"/>
      <point x="980" y="-366"/>
      <point x="980" y="-150" type="curve" smooth="yes"/>
      <point x="980" y="205"/>
      <point x="822" y="360"/>
      <point x="625" y="360" type="curve" smooth="yes"/>
      <point x="514" y="360"/>
      <point x="400" y="316"/>
      <point x="327" y="213" type="curve"/>
      <point x="242" y="401" type="line"/>
      <point x="335" y="521"/>
      <point x="470" y="570"/>
      <point x="625" y="570" type="curve" smooth="yes"/>
      <point x="912" y="570"/>
      <point x="1220" y="343"/>
      <point x="1220" y="-150" type="curve" smooth="yes"/>
      <point x="1220" y="-535"/>
      <point x="909" y="-743"/>
    </contour>
  </outline>
</glyph>
<glyph name="uni19C5" format="1">
  <advance width="1835"/>
  <unicode hex="19C5"/>
  <outline>
    <contour>
      <point x="945" y="570" type="curve" smooth="yes"/>
      <point x="945" y="560"/>
      <point x="937" y="550"/>
      <point x="928" y="550" type="curve" smooth="yes"/>
      <point x="878" y="550" type="line" smooth="yes"/>
      <point x="867" y="550"/>
      <point x="860" y="560"/>
      <point x="860" y="570" type="curve" smooth="yes"/>
      <point x="860" y="619"/>
      <point x="871" y="675"/>
      <point x="881" y="712" type="curve" smooth="yes"/>
      <point x="922" y="866"/>
      <point x="1083" y="970"/>
      <point x="1260" y="970" type="curve" smooth="yes"/>
      <point x="1527" y="970"/>
      <point x="1695" y="742"/>
      <point x="1695" y="480" type="curve" smooth="yes"/>
      <point x="1695" y="268"/>
      <point x="1605" y="-19"/>
      <point x="1360" y="-20" type="curve" smooth="yes"/>
      <point x="1328" y="-20"/>
      <point x="1291" y="-15"/>
      <point x="1260" y="-2" type="curve" smooth="yes"/>
      <point x="1250" y="2"/>
      <point x="1247" y="14"/>
      <point x="1252" y="23" type="curve" smooth="yes"/>
      <point x="1298" y="102" type="line" smooth="yes"/>
      <point x="1302" y="110"/>
      <point x="1314" y="110"/>
      <point x="1325" y="108" type="curve" smooth="yes"/>
      <point x="1334" y="106"/>
      <point x="1349" y="105"/>
      <point x="1360" y="105" type="curve" smooth="yes"/>
      <point x="1520" y="105"/>
      <point x="1570" y="336"/>
      <point x="1570" y="480" type="curve" smooth="yes"/>
      <point x="1570" y="680"/>
      <point x="1426" y="845"/>
      <point x="1260" y="845" type="curve" smooth="yes"/>
      <point x="1093" y="845"/>
      <point x="945" y="741"/>
    </contour>
    <contour>
      <point x="860" y="570" type="curve" smooth="yes"/>
      <point x="860" y="741"/>
      <point x="712" y="845"/>
      <point x="545" y="845" type="curve" smooth="yes"/>
      <point x="379" y="845"/>
      <point x="235" y="680"/>
      <point x="235" y="480" type="curve" smooth="yes"/>
      <point x="235" y="340"/>
      <point x="285" y="105"/>
      <point x="445" y="105" type="curve" smooth="yes"/>
      <point x="456" y="105"/>
      <point x="471" y="106"/>
      <point x="480" y="108" type="curve" smooth="yes"/>
      <point x="491" y="110"/>
      <point x="503" y="110"/>
      <point x="507" y="102" type="curve" smooth="yes"/>
      <point x="553" y="23" type="line" smooth="yes"/>
      <point x="558" y="14"/>
      <point x="555" y="2"/>
      <point x="545" y="-2" type="curve" smooth="yes"/>
      <point x="514" y="-15"/>
      <point x="477" y="-20"/>
      <point x="445" y="-20" type="curve" smooth="yes"/>
      <point x="200" y="-19"/>
      <point x="110" y="268"/>
      <point x="110" y="480" type="curve" smooth="yes"/>
      <point x="110" y="742"/>
      <point x="278" y="970"/>
      <point x="545" y="970" type="curve" smooth="yes"/>
      <point x="722" y="970"/>
      <point x="883" y="866"/>
      <point x="924" y="712" type="curve" smooth="yes"/>
      <point x="934" y="675"/>
      <point x="945" y="619"/>
      <point x="945" y="570" type="curve" smooth="yes"/>
      <point x="945" y="560"/>
      <point x="938" y="550"/>
      <point x="927" y="550" type="curve" smooth="yes"/>
      <point x="877" y="550" type="line" smooth="yes"/>
      <point x="868" y="550"/>
      <point x="860" y="560"/>
    </contour>
    <contour>
      <point x="1655" y="-505" type="curve"/>
      <point x="1530" y="-505" type="line"/>
      <point x="1530" y="-440"/>
      <point x="1486" y="-400"/>
      <point x="1420" y="-400" type="curve" smooth="yes"/>
      <point x="1354" y="-400"/>
      <point x="1315" y="-440"/>
      <point x="1315" y="-505" type="curve" smooth="yes"/>
      <point x="1315" y="-570"/>
      <point x="1354" y="-615"/>
      <point x="1420" y="-615" type="curve" smooth="yes"/>
      <point x="1486" y="-615"/>
      <point x="1530" y="-570"/>
      <point x="1530" y="-505" type="curve" smooth="yes"/>
      <point x="1530" y="234" type="line"/>
      <point x="1655" y="470" type="line"/>
      <point x="1655" y="-505" type="line" smooth="yes"/>
      <point x="1655" y="-642"/>
      <point x="1549" y="-735"/>
      <point x="1420" y="-735" type="curve" smooth="yes"/>
      <point x="1291" y="-735"/>
      <point x="1195" y="-643"/>
      <point x="1195" y="-505" type="curve" smooth="yes"/>
      <point x="1195" y="-364"/>
      <point x="1290" y="-280"/>
      <point x="1410" y="-280" type="curve" smooth="yes"/>
      <point x="1524" y="-280"/>
      <point x="1635" y="-430"/>
    </contour>
  </outline>
</glyph>
<glyph name="uni19C7" format="1">
  <advance width="1210"/>
  <unicode hex="19C7"/>
  <outline>
    <contour>
      <point x="1030" y="-505" type="curve"/>
      <point x="905" y="-505" type="line"/>
      <point x="905" y="-440"/>
      <point x="861" y="-400"/>
      <point x="795" y="-400" type="curve" smooth="yes"/>
      <point x="729" y="-400"/>
      <point x="690" y="-440"/>
      <point x="690" y="-505" type="curve" smooth="yes"/>
      <point x="690" y="-570"/>
      <point x="729" y="-615"/>
      <point x="795" y="-615" type="curve" smooth="yes"/>
      <point x="861" y="-615"/>
      <point x="905" y="-570"/>
      <point x="905" y="-505" type="curve" smooth="yes"/>
      <point x="905" y="234" type="line"/>
      <point x="1030" y="470" type="line"/>
      <point x="1030" y="-505" type="line" smooth="yes"/>
      <point x="1030" y="-642"/>
      <point x="924" y="-735"/>
      <point x="795" y="-735" type="curve" smooth="yes"/>
      <point x="666" y="-735"/>
      <point x="570" y="-643"/>
      <point x="570" y="-505" type="curve" smooth="yes"/>
      <point x="570" y="-364"/>
      <point x="665" y="-280"/>
      <point x="785" y="-280" type="curve" smooth="yes"/>
      <point x="899" y="-280"/>
      <point x="1010" y="-430"/>
    </contour>
    <contour>
      <point x="590" y="-20" type="curve" smooth="yes"/>
      <point x="312" y="-20"/>
      <point x="110" y="185"/>
      <point x="110" y="500" type="curve" smooth="yes"/>
      <point x="110" y="717"/>
      <point x="198" y="873"/>
      <point x="335" y="970" type="curve" smooth="yes"/>
      <point x="345" y="977"/>
      <point x="359" y="974"/>
      <point x="367" y="964" type="curve" smooth="yes"/>
      <point x="416" y="900" type="line" smooth="yes"/>
      <point x="424" y="890"/>
      <point x="420" y="876"/>
      <point x="410" y="870" type="curve" smooth="yes"/>
      <point x="313" y="809"/>
      <point x="235" y="681"/>
      <point x="235" y="500" type="curve" smooth="yes"/>
      <point x="235" y="293"/>
      <point x="356" y="105"/>
      <point x="590" y="105" type="curve" smooth="yes"/>
      <point x="824" y="105"/>
      <point x="945" y="293"/>
      <point x="945" y="500" type="curve" smooth="yes"/>
      <point x="945" y="681"/>
      <point x="872" y="804"/>
      <point x="775" y="865" type="curve" smooth="yes"/>
      <point x="765" y="871"/>
      <point x="761" y="885"/>
      <point x="769" y="895" type="curve"/>
      <point x="813" y="964" type="line"/>
      <point x="821" y="974"/>
      <point x="835" y="977"/>
      <point x="845" y="970" type="curve" smooth="yes"/>
      <point x="982" y="873"/>
      <point x="1070" y="717"/>
      <point x="1070" y="500" type="curve" smooth="yes"/>
      <point x="1070" y="185"/>
      <point x="868" y="-20"/>
    </contour>
  </outline>
</glyph>
<glyph name="uni19D2" format="1">
  <advance width="1111"/>
  <unicode hex="19D2"/>
  <outline>
    <contour>
      <point x="619" y="522" type="curve" smooth="yes"/>
      <point x="673" y="482"/>
      <point x="732" y="404"/>
      <point x="732" y="282" type="curve" smooth="yes"/>
      <point x="732" y="63"/>
      <point x="618" y="-20"/>
      <point x="491" y="-20" type="curve" smooth="yes"/>
      <point x="333" y="-20"/>
      <point x="226" y="131"/>
      <point x="226" y="430" type="curve" smooth="yes"/>
      <point x="226" y="791"/>
      <point x="336" y="970"/>
      <point x="601" y="970" type="curve" smooth="yes"/>
      <point x="940" y="970"/>
      <point x="971" y="548"/>
      <point x="971" y="165" type="curve" smooth="yes"/>
      <point x="971" y="-293"/>
      <point x="899" y="-680"/>
      <point x="486" y="-680" type="curve" smooth="yes"/>
      <point x="260" y="-680"/>
      <point x="121" y="-514"/>
      <point x="81" y="-392" type="curve" smooth="yes"/>
      <point x="78" y="-382"/>
      <point x="85" y="-370"/>
      <point x="95" y="-366" type="curve" smooth="yes"/>
      <point x="127" y="-355" type="line" smooth="yes"/>
      <point x="135" y="-352"/>
      <point x="148" y="-360"/>
      <point x="152" y="-370" type="curve" smooth="yes"/>
      <point x="197" y="-470"/>
      <point x="290" y="-585"/>
      <point x="486" y="-585" type="curve" smooth="yes"/>
      <point x="797" y="-585"/>
      <point x="842" y="-217"/>
      <point x="846" y="165" type="curve"/>
      <point x="850" y="451"/>
      <point x="839" y="845"/>
      <point x="601" y="845" type="curve" smooth="yes"/>
      <point x="406" y="845"/>
      <point x="351" y="718"/>
      <point x="351" y="430" type="curve" smooth="yes"/>
      <point x="351" y="224"/>
      <point x="392" y="105"/>
      <point x="491" y="105" type="curve" smooth="yes"/>
      <point x="549" y="105"/>
      <point x="616" y="156"/>
      <point x="614" y="280" type="curve" smooth="yes"/>
      <point x="613" y="354"/>
      <point x="568" y="408"/>
      <point x="522" y="441" type="curve" smooth="yes"/>
      <point x="514" y="447"/>
      <point x="515" y="460"/>
      <point x="524" y="468" type="curve" smooth="yes"/>
      <point x="593" y="527" type="line" smooth="yes"/>
      <point x="600" y="532"/>
      <point x="611" y="528"/>
    </contour>
  </outline>
</glyph>
<glyph name="uni19D3" format="1">
  <advance width="1229"/>
  <unicode hex="19D3"/>
  <outline>
    <contour>
      <point x="294" y="562" type="curve" smooth="yes"/>
      <point x="204" y="562"/>
      <point x="109" y="627"/>
      <point x="109" y="715" type="curve" smooth="yes"/>
      <point x="109" y="887"/>
      <point x="312" y="969"/>
      <point x="561" y="969" type="curve" smooth="yes"/>
      <point x="817" y="969"/>
      <point x="1106" y="798"/>
      <point x="1106" y="483" type="curve" smooth="yes"/>
      <point x="1106" y="76"/>
      <point x="666" y="-55"/>
      <point x="355" y="-5" type="curve" smooth="yes"/>
      <point x="345" y="-3"/>
      <point x="343" y="-18"/>
      <point x="350" y="-24" type="curve" smooth="yes"/>
      <point x="450" y="-111"/>
      <point x="1008" y="-512"/>
      <point x="1220" y="-618" type="curve" smooth="yes"/>
      <point x="1228" y="-622"/>
      <point x="1232" y="-636"/>
      <point x="1225" y="-646" type="curve"/>
      <point x="1147" y="-735" type="line" smooth="yes"/>
      <point x="1141" y="-741"/>
      <point x="1128" y="-739"/>
      <point x="1121" y="-734" type="curve" smooth="yes"/>
      <point x="759" y="-472"/>
      <point x="362" y="-156"/>
      <point x="110" y="58" type="curve" smooth="yes"/>
      <point x="102" y="64"/>
      <point x="96" y="78"/>
      <point x="104" y="87" type="curve" smooth="yes"/>
      <point x="150" y="142" type="line" smooth="yes"/>
      <point x="155" y="149"/>
      <point x="167" y="149"/>
      <point x="178" y="145" type="curve" smooth="yes"/>
      <point x="259" y="115"/>
      <point x="354" y="106"/>
      <point x="467" y="107" type="curve" smooth="yes"/>
      <point x="702" y="109"/>
      <point x="981" y="207"/>
      <point x="981" y="484" type="curve" smooth="yes"/>
      <point x="981" y="694"/>
      <point x="774" y="844"/>
      <point x="561" y="844" type="curve" smooth="yes"/>
      <point x="369" y="844"/>
      <point x="207" y="800"/>
      <point x="207" y="715" type="curve" smooth="yes"/>
      <point x="207" y="668"/>
      <point x="259" y="652"/>
      <point x="294" y="652" type="curve" smooth="yes"/>
      <point x="304" y="652"/>
      <point x="314" y="644"/>
      <point x="314" y="635" type="curve" smooth="yes"/>
      <point x="314" y="580" type="line" smooth="yes"/>
      <point x="314" y="569"/>
      <point x="304" y="562"/>
    </contour>
  </outline>
</glyph>
<glyph name="uni19D4" format="1">
  <advance width="1490"/>
  <unicode hex="19D4"/>
  <outline>
    <contour>
      <point x="606" y="845" type="curve" smooth="yes"/>
      <point x="424" y="845"/>
      <point x="245" y="719"/>
      <point x="245" y="470" type="curve" smooth="yes"/>
      <point x="245" y="218"/>
      <point x="429" y="105"/>
      <point x="596" y="105" type="curve" smooth="yes"/>
      <point x="719" y="105"/>
      <point x="864" y="159"/>
      <point x="975" y="243" type="curve" smooth="yes"/>
      <point x="982" y="249"/>
      <point x="999" y="245"/>
      <point x="998" y="230" type="curve" smooth="yes"/>
      <point x="991" y="120"/>
      <point x="982" y="-111"/>
      <point x="978" y="-250" type="curve"/>
      <point x="978" y="-507"/>
      <point x="1039" y="-625"/>
      <point x="1158" y="-625" type="curve" smooth="yes"/>
      <point x="1297" y="-625"/>
      <point x="1318" y="-439"/>
      <point x="1318" y="-250" type="curve" smooth="yes"/>
      <point x="1318" y="-240"/>
      <point x="1325" y="-231"/>
      <point x="1336" y="-231" type="curve" smooth="yes"/>
      <point x="1376" y="-230" type="line" smooth="yes"/>
      <point x="1385" y="-230"/>
      <point x="1391" y="-240"/>
      <point x="1393" y="-250" type="curve" smooth="yes"/>
      <point x="1443" y="-500"/>
      <point x="1385" y="-740"/>
      <point x="1158" y="-740" type="curve" smooth="yes"/>
      <point x="970" y="-740"/>
      <point x="853" y="-604"/>
      <point x="853" y="-250" type="curve" smooth="yes"/>
      <point x="853" y="-156"/>
      <point x="860" y="-48"/>
      <point x="868" y="23" type="curve" smooth="yes"/>
      <point x="869" y="31"/>
      <point x="857" y="35"/>
      <point x="850" y="32" type="curve" smooth="yes"/>
      <point x="779" y="3"/>
      <point x="692" y="-20"/>
      <point x="596" y="-20" type="curve" smooth="yes"/>
      <point x="340" y="-20"/>
      <point x="120" y="166"/>
      <point x="120" y="470" type="curve" smooth="yes"/>
      <point x="120" y="758"/>
      <point x="331" y="970"/>
      <point x="606" y="970" type="curve" smooth="yes"/>
      <point x="793" y="970"/>
      <point x="954" y="902"/>
      <point x="1061" y="775" type="curve" smooth="yes"/>
      <point x="1069" y="765"/>
      <point x="1066" y="750"/>
      <point x="1055" y="743" type="curve" smooth="yes"/>
      <point x="986" y="699" type="line" smooth="yes"/>
      <point x="975" y="692"/>
      <point x="964" y="696"/>
      <point x="956" y="705" type="curve" smooth="yes"/>
      <point x="875" y="792"/>
      <point x="747" y="845"/>
    </contour>
  </outline>
</glyph>
<glyph name="uni19D8" format="1">
  <advance width="1465"/>
  <unicode hex="19D8"/>
  <outline>
    <contour>
      <point x="100" y="0" type="curve" smooth="yes"/>
      <point x="90" y="0"/>
      <point x="80" y="7"/>
      <point x="80" y="18" type="curve" smooth="yes"/>
      <point x="80" y="108" type="line" smooth="yes"/>
      <point x="80" y="117"/>
      <point x="90" y="125"/>
      <point x="100" y="125" type="curve" smooth="yes"/>
      <point x="437" y="125"/>
      <point x="680" y="363"/>
      <point x="680" y="775" type="curve" smooth="yes"/>
      <point x="680" y="785"/>
      <point x="687" y="795"/>
      <point x="698" y="795" type="curve" smooth="yes"/>
      <point x="768" y="795" type="line" smooth="yes"/>
      <point x="777" y="795"/>
      <point x="785" y="785"/>
      <point x="785" y="775" type="curve" smooth="yes"/>
      <point x="785" y="273"/>
      <point x="498" y="0"/>
    </contour>
    <contour>
      <point x="1365" y="0" type="curve" smooth="yes"/>
      <point x="967" y="0"/>
      <point x="680" y="273"/>
      <point x="680" y="775" type="curve" smooth="yes"/>
      <point x="680" y="785"/>
      <point x="688" y="795"/>
      <point x="697" y="795" type="curve" smooth="yes"/>
      <point x="767" y="795" type="line" smooth="yes"/>
      <point x="778" y="795"/>
      <point x="785" y="785"/>
      <point x="785" y="775" type="curve" smooth="yes"/>
      <point x="785" y="363"/>
      <point x="1028" y="125"/>
      <point x="1365" y="125" type="curve" smooth="yes"/>
      <point x="1375" y="125"/>
      <point x="1385" y="117"/>
      <point x="1385" y="108" type="curve" smooth="yes"/>
      <point x="1385" y="18" type="line" smooth="yes"/>
      <point x="1385" y="7"/>
      <point x="1375" y="0"/>
    </contour>
  </outline>
</glyph>
<glyph name="guilsinglright" format="1">
  <advance width="758"/>
  <unicode hex="203A"/>
  <outline>
    <contour>
      <point x="195" y="999" type="line"/>
      <point x="627" y="473" type="line"/>
      <point x="195" y="-48" type="line"/>
      <point x="136" y="-48" type="line"/>
      <point x="408" y="473" type="line"/>
      <point x="136" y="999" type="line"/>
    </contour>
  </outline>
</glyph>
<glyph name=".notdef" format="1">
  <advance width="1024"/>
  <outline>
    <contour>
      <point x="896" y="0" type="line"/>
      <point x="128" y="0" type="line"/>
      <point x="128" y="1400" type="line"/>
      <point x="896" y="1400" type="line"/>
    </contour>
    <contour>
      <point x="256" y="1272" type="line"/>
      <point x="256" y="128" type="line"/>
      <point x="768" y="128" type="line"/>
      <point x="768" y="1272" type="line"/>
    </contour>
  </outline>
</glyph>
<glyph name="dailuemodifierfinal" format="1">
  <advance width="1"/>
  <outline>
    <contour>
      <point x="-140" y="-505" type="curve"/>
      <point x="-265" y="-505" type="line"/>
      <point x="-265" y="-440"/>
      <point x="-309" y="-400"/>
      <point x="-375" y="-400" type="curve" smooth="yes"/>
      <point x="-441" y="-400"/>
      <point x="-480" y="-440"/>
      <point x="-480" y="-505" type="curve" smooth="yes"/>
      <point x="-480" y="-570"/>
      <point x="-441" y="-615"/>
      <point x="-375" y="-615" type="curve" smooth="yes"/>
      <point x="-309" y="-615"/>
      <point x="-265" y="-570"/>
      <point x="-265" y="-505" type="curve" smooth="yes"/>
      <point x="-265" y="204" type="line"/>
      <point x="-140" y="350" type="line"/>
      <point x="-140" y="-505" type="line" smooth="yes"/>
      <point x="-140" y="-642"/>
      <point x="-246" y="-735"/>
      <point x="-375" y="-735" type="curve" smooth="yes"/>
      <point x="-504" y="-735"/>
      <point x="-600" y="-643"/>
      <point x="-600" y="-505" type="curve" smooth="yes"/>
      <point x="-600" y="-364"/>
      <point x="-505" y="-280"/>
      <point x="-385" y="-280" type="curve" smooth="yes"/>
      <point x="-271" y="-280"/>
      <point x="-160" y="-430"/>
    </contour>
  </outline>
</glyph>
<glyph name="dailuemodifierw" format="1">
  <advance width="1"/>
  <outline>
    <contour>
      <point x="-840" y="-345" type="curve" smooth="yes"/>
      <point x="-840" y="-420"/>
      <point x="-731" y="-475"/>
      <point x="-565" y="-475" type="curve" smooth="yes"/>
      <point x="-399" y="-475"/>
      <point x="-285" y="-420"/>
      <point x="-285" y="-345" type="curve" smooth="yes"/>
      <point x="-285" y="-270"/>
      <point x="-399" y="-220"/>
      <point x="-565" y="-220" type="curve" smooth="yes"/>
      <point x="-731" y="-220"/>
      <point x="-840" y="-270"/>
    </contour>
    <contour>
      <point x="-945" y="-345" type="curve" smooth="yes"/>
      <point x="-945" y="-200"/>
      <point x="-789" y="-115"/>
      <point x="-565" y="-115" type="curve" smooth="yes"/>
      <point x="-341" y="-115"/>
      <point x="-180" y="-200"/>
      <point x="-180" y="-345" type="curve" smooth="yes"/>
      <point x="-180" y="-488"/>
      <point x="-341" y="-580"/>
      <point x="-565" y="-580" type="curve" smooth="yes"/>
      <point x="-789" y="-580"/>
      <point x="-945" y="-488"/>
    </contour>
  </outline>
</glyph>
